<svg width="22" height="26" viewBox="0 0 22 26" fill="none" xmlns="http://www.w3.org/2000/svg">
<path d="M20.6364 10.8182C20.6364 18.4545 10.8182 25 10.8182 25C10.8182 25 1 18.4545 1 10.8182C1 8.21424 2.03441 5.71695 3.87568 3.87568C5.71694 2.03441 8.21424 1 10.8182 1C13.4221 1 15.9194 2.03441 17.7607 3.87568C19.6019 5.71695 20.6364 8.21424 20.6364 10.8182Z" stroke="black" stroke-width="2" stroke-linecap="round" stroke-linejoin="round"/>
<path d="M10.822 14.0918C12.6295 14.0918 14.0948 12.6266 14.0948 10.8191C14.0948 9.01164 12.6295 7.54639 10.822 7.54639C9.01457 7.54639 7.54932 9.01164 7.54932 10.8191C7.54932 12.6266 9.01457 14.0918 10.822 14.0918Z" stroke="black" stroke-width="2" stroke-linecap="round" stroke-linejoin="round"/>
</svg>
