<svg width="28" height="29" viewBox="0 0 28 29" fill="none" xmlns="http://www.w3.org/2000/svg">
<rect y="0.359375" width="28" height="28" rx="4" fill="black"/>
<path d="M13.8822 12.6009C14.0516 12.6636 14.2177 12.5101 14.1616 12.3468C13.7763 11.2255 12.3814 10.8073 11.0848 11.802C10.4027 12.3253 10.1464 12.4365 10.1399 12.4393C10.5896 12.8639 11.1033 14.2888 12.2244 14.4463C13.4593 14.6578 14.5523 13.5103 13.6581 12.9852C13.07 12.6399 12.3776 12.4393 11.6353 12.4393C12.4134 12.2737 13.1902 12.3447 13.8822 12.6009Z" fill="#FFEBB9"/>
<path d="M19.4744 11.8019C17.2361 10.0848 15.8086 12.7927 16.6959 12.5243C17.3261 12.3337 18.0151 12.2921 18.7061 12.4393C17.5352 12.4393 16.4559 12.946 15.7363 13.7709C15.7954 12.4746 15.8848 11.6632 15.9884 11.0596C16.5865 11.0402 17.3837 10.584 17.8215 9.78581C18.5762 8.51019 18.2262 7.20226 18.1136 6.37695C17.5238 6.91931 14.9478 6.28381 13.9266 7.93655C13.4754 8.66663 13.6066 9.55504 14.0811 10.2052C14.2313 10.411 14.5905 10.3122 14.6008 10.0625C14.6453 8.97594 15.2179 8.15503 16.2853 7.70036C15.8063 8.28648 15.4918 8.94268 15.3294 9.62092C15.0768 10.6774 14.8131 11.3705 14.7162 14.738C14.7064 15.0795 14.9993 15.3622 15.361 15.3579C15.6229 15.3548 15.8472 15.1979 15.9479 14.9696C16.101 14.6223 16.3503 14.263 16.756 13.9337C17.1414 14.3361 17.728 14.5502 18.335 14.4463C19.4513 14.2894 19.9723 12.8615 20.4194 12.4392C20.4128 12.4365 20.1565 12.3253 19.4744 11.8019Z" fill="#FFEBB9"/>
<path d="M22.7649 15.9978C22.0651 15.5494 21.3035 15.8689 20.9538 16.0596L16.5647 19.0936L13.9947 19.0941L13.3523 18.4873H15.7124C16.4222 18.4873 17.2172 18.0507 17.2172 17.2735C17.2172 16.4484 16.4222 16.0596 15.7124 16.0596H14.828C14.1709 16.0596 13.4031 16.115 12.8618 15.8413C12.3474 15.5941 11.7551 15.4534 11.1229 15.4534C10.0612 15.4534 9.11104 15.8531 8.45992 16.4835L5 19.7004L8.85489 23.3411L10.1399 21.5207H16.2119C16.8595 21.5207 17.4846 21.2964 17.9687 20.8902L22.8088 16.8295C23.0779 16.6037 23.0627 16.1887 22.7649 15.9978Z" fill="#FFEBB9"/>
</svg>
