<svg width="28" height="29" viewBox="0 0 28 29" fill="none" xmlns="http://www.w3.org/2000/svg">
<rect y="0.359375" width="28" height="28" rx="4" fill="black"/>
<path d="M14.9395 18.957H15.8184V21.3594H14.9395V18.957Z" fill="#FFEBB9"/>
<path d="M13.1816 18.957H14.0605V21.3594H13.1816V18.957Z" fill="#FFEBB9"/>
<path d="M17.459 6.35938H11.541C11.2983 6.35938 11.1016 6.55613 11.1016 6.79883V21.3594H12.3027V18.5176C12.3027 18.2749 12.4995 18.0781 12.7422 18.0781H16.2578C16.5005 18.0781 16.6973 18.2749 16.6973 18.5176V21.3594H17.8984V6.79883C17.8984 6.55613 17.7017 6.35938 17.459 6.35938ZM13.1816 16.7598C13.1816 17.0025 12.9849 17.1992 12.7422 17.1992C12.4995 17.1992 12.3027 17.0025 12.3027 16.7598V15.8809C12.3027 15.6382 12.4995 15.4414 12.7422 15.4414C12.9849 15.4414 13.1816 15.6382 13.1816 15.8809V16.7598ZM13.1816 14.123C13.1816 14.3657 12.9849 14.5625 12.7422 14.5625C12.4995 14.5625 12.3027 14.3657 12.3027 14.123V13.2441C12.3027 13.0014 12.4995 12.8047 12.7422 12.8047C12.9849 12.8047 13.1816 13.0014 13.1816 13.2441V14.123ZM14.9395 16.7598C14.9395 17.0025 14.7427 17.1992 14.5 17.1992C14.2573 17.1992 14.0605 17.0025 14.0605 16.7598V15.8809C14.0605 15.6382 14.2573 15.4414 14.5 15.4414C14.7427 15.4414 14.9395 15.6382 14.9395 15.8809V16.7598ZM14.9395 14.123C14.9395 14.3657 14.7427 14.5625 14.5 14.5625C14.2573 14.5625 14.0605 14.3657 14.0605 14.123V13.2441C14.0605 13.0014 14.2573 12.8047 14.5 12.8047C14.7427 12.8047 14.9395 13.0014 14.9395 13.2441V14.123ZM16.6973 16.7598C16.6973 17.0025 16.5005 17.1992 16.2578 17.1992C16.0151 17.1992 15.8184 17.0025 15.8184 16.7598V15.8809C15.8184 15.6382 16.0151 15.4414 16.2578 15.4414C16.5005 15.4414 16.6973 15.6382 16.6973 15.8809V16.7598ZM16.6973 14.123C16.6973 14.3657 16.5005 14.5625 16.2578 14.5625C16.0151 14.5625 15.8184 14.3657 15.8184 14.123V13.2441C15.8184 13.0014 16.0151 12.8047 16.2578 12.8047C16.5005 12.8047 16.6973 13.0014 16.6973 13.2441V14.123ZM13.1816 11.4863C13.1816 11.729 12.9849 11.9258 12.7422 11.9258C12.4995 11.9258 12.3027 11.729 12.3027 11.4863V10.6074C12.3027 10.3647 12.4995 10.168 12.7422 10.168C12.9849 10.168 13.1816 10.3647 13.1816 10.6074V11.4863ZM14.9395 11.4863C14.9395 11.729 14.7427 11.9258 14.5 11.9258C14.2573 11.9258 14.0605 11.729 14.0605 11.4863V10.6074C14.0605 10.3647 14.2573 10.168 14.5 10.168C14.7427 10.168 14.9395 10.3647 14.9395 10.6074V11.4863ZM16.6973 11.4863C16.6973 11.729 16.5005 11.9258 16.2578 11.9258C16.0151 11.9258 15.8184 11.729 15.8184 11.4863V10.6074C15.8184 10.3647 16.0151 10.168 16.2578 10.168C16.5005 10.168 16.6973 10.3647 16.6973 10.6074V11.4863ZM13.1816 8.84961C13.1816 9.0923 12.9849 9.28906 12.7422 9.28906C12.4995 9.28906 12.3027 9.0923 12.3027 8.84961V7.9707C12.3027 7.72801 12.4995 7.53125 12.7422 7.53125C12.9849 7.53125 13.1816 7.72801 13.1816 7.9707V8.84961ZM14.9395 8.84961C14.9395 9.0923 14.7427 9.28906 14.5 9.28906C14.2573 9.28906 14.0605 9.0923 14.0605 8.84961V7.9707C14.0605 7.72801 14.2573 7.53125 14.5 7.53125C14.7427 7.53125 14.9395 7.72801 14.9395 7.9707V8.84961ZM16.6973 8.84961C16.6973 9.0923 16.5005 9.28906 16.2578 9.28906C16.0151 9.28906 15.8184 9.0923 15.8184 8.84961V7.9707C15.8184 7.72801 16.0151 7.53125 16.2578 7.53125C16.5005 7.53125 16.6973 7.72801 16.6973 7.9707V8.84961Z" fill="#FFEBB9"/>
<path d="M21.5605 12.2188H18.7773V21.3594H21.5605C21.8032 21.3594 22 21.1626 22 20.9199V12.6582C22 12.4155 21.8032 12.2188 21.5605 12.2188ZM20.8281 17.9316C20.8281 18.1743 20.6314 18.3711 20.3887 18.3711C20.146 18.3711 19.9492 18.1743 19.9492 17.9316V17.0527C19.9492 16.81 20.146 16.6133 20.3887 16.6133C20.6314 16.6133 20.8281 16.81 20.8281 17.0527V17.9316ZM20.8281 15.2949C20.8281 15.5376 20.6314 15.7344 20.3887 15.7344C20.146 15.7344 19.9492 15.5376 19.9492 15.2949V14.416C19.9492 14.1733 20.146 13.9766 20.3887 13.9766C20.6314 13.9766 20.8281 14.1733 20.8281 14.416V15.2949Z" fill="#FFEBB9"/>
<path d="M7.43945 12.2188C7.19676 12.2188 7 12.4155 7 12.6582V20.9199C7 21.1626 7.19676 21.3594 7.43945 21.3594H10.2227V12.2188H7.43945ZM9.05078 17.9316C9.05078 18.1743 8.85402 18.3711 8.61133 18.3711C8.36863 18.3711 8.17188 18.1743 8.17188 17.9316V17.0527C8.17188 16.81 8.36863 16.6133 8.61133 16.6133C8.85402 16.6133 9.05078 16.81 9.05078 17.0527V17.9316ZM9.05078 15.2949C9.05078 15.5376 8.85402 15.7344 8.61133 15.7344C8.36863 15.7344 8.17188 15.5376 8.17188 15.2949V14.416C8.17188 14.1733 8.36863 13.9766 8.61133 13.9766C8.85402 13.9766 9.05078 14.1733 9.05078 14.416V15.2949Z" fill="#FFEBB9"/>
</svg>
