<svg width="28" height="29" viewBox="0 0 28 29" fill="none" xmlns="http://www.w3.org/2000/svg">
<rect y="0.359375" width="28" height="28" rx="4" fill="black"/>
<path d="M22.7969 19.801C22.519 19.6079 22.2745 19.3707 22.0728 19.0989C21.5901 18.5504 20.9758 17.8702 19.8348 17.8702C18.6939 17.8702 18.1015 18.5284 17.5968 19.1209C17.0922 19.7133 16.7631 20.0643 16.0171 20.0643C15.2711 20.0643 14.8981 19.6474 14.4374 19.1209C13.9766 18.5943 13.3622 17.8702 12.1994 17.8702C11.0365 17.8702 10.466 18.5284 9.96136 19.1209C9.45673 19.7133 9.12761 20.0643 8.38162 20.0643C7.63564 20.0643 7.26263 19.6474 6.80188 19.1209C6.48867 18.7072 6.0926 18.3635 5.639 18.1116C5.42087 18.0025 5.15566 18.0909 5.0466 18.309C4.93753 18.5272 5.02593 18.7924 5.24406 18.9014C5.58856 19.1091 5.8932 19.3766 6.14363 19.6913C6.64826 20.2837 7.24066 20.942 8.38162 20.942C9.52258 20.942 10.1149 20.2837 10.6196 19.6913C11.1242 19.0989 11.4534 18.7479 12.1994 18.7479C12.9453 18.7479 13.3184 19.1647 13.7791 19.6913C14.2398 20.2179 14.8542 20.942 16.0171 20.942C17.18 20.942 17.7504 20.2837 18.2551 19.6913C18.7597 19.0989 19.0888 18.7479 19.8348 18.7479C20.5808 18.7479 20.9538 19.1647 21.4146 19.6913C21.6703 20.0196 21.9735 20.308 22.3141 20.547C22.5201 20.6803 22.7952 20.6214 22.9285 20.4153C23.0618 20.2093 23.0029 19.9343 22.7969 19.801Z" fill="#FFEBB9"/>
<path d="M22.7969 16.5099C22.519 16.3167 22.2745 16.0796 22.0728 15.8078C21.5901 15.2592 20.9758 14.5791 19.8348 14.5791C18.6939 14.5791 18.1015 15.2373 17.5968 15.8297C17.0922 16.4221 16.7631 16.7732 16.0171 16.7732C15.2711 16.7732 14.8981 16.3563 14.4374 15.8297C13.9766 15.3031 13.3622 14.5791 12.1994 14.5791C11.0365 14.5791 10.466 15.2373 9.96136 15.8297C9.45673 16.4221 9.12761 16.7732 8.38162 16.7732C7.63564 16.7732 7.26263 16.3563 6.80188 15.8297C6.48867 15.4161 6.0926 15.0723 5.639 14.8204C5.42087 14.7114 5.15566 14.7998 5.0466 15.0179C4.93753 15.236 5.02593 15.5012 5.24406 15.6103C5.58856 15.8179 5.8932 16.0854 6.14363 16.4002C6.64826 16.9926 7.24066 17.6508 8.38162 17.6508C9.52258 17.6508 10.1149 16.9926 10.6196 16.4002C11.1242 15.8078 11.4534 15.4567 12.1994 15.4567C12.9453 15.4567 13.3184 15.8736 13.7791 16.4002C14.2398 16.9268 14.8542 17.6508 16.0171 17.6508C17.18 17.6508 17.7504 16.9926 18.2551 16.4002C18.7597 15.8078 19.0888 15.4567 19.8348 15.4567C20.5808 15.4567 20.9538 15.8736 21.4146 16.4002C21.6703 16.7285 21.9735 17.0169 22.3141 17.2558C22.5201 17.3891 22.7952 17.3302 22.9285 17.1242C23.0618 16.9182 23.0029 16.6432 22.7969 16.5099Z" fill="#FFEBB9"/>
<path d="M22.7969 12.9992C22.519 12.806 22.2745 12.5689 22.0728 12.2971C21.5901 11.7486 20.9758 11.0684 19.8348 11.0684C18.6939 11.0684 18.1015 11.7266 17.5968 12.3191C17.0922 12.9115 16.7631 13.2625 16.0171 13.2625C15.2711 13.2625 14.8981 12.8456 14.4374 12.3191C13.9766 11.7925 13.3622 11.0684 12.1994 11.0684C11.0365 11.0684 10.466 11.7266 9.96136 12.3191C9.45673 12.9115 9.12761 13.2625 8.38162 13.2625C7.63564 13.2625 7.26263 12.8456 6.80188 12.3191C6.48867 11.9054 6.0926 11.5616 5.639 11.3097C5.42087 11.2007 5.15566 11.2891 5.0466 11.5072C4.93753 11.7253 5.02593 11.9906 5.24406 12.0996C5.58856 12.3072 5.8932 12.5748 6.14363 12.8895C6.64826 13.4819 7.24066 14.1401 8.38162 14.1401C9.52258 14.1401 10.1149 13.4819 10.6196 12.8895C11.1242 12.2971 11.4534 11.946 12.1994 11.946C12.9453 11.946 13.3184 12.3629 13.7791 12.8895C14.2398 13.416 14.8542 14.1401 16.0171 14.1401C17.18 14.1401 17.7504 13.4819 18.2551 12.8895C18.7598 12.297 19.0888 11.946 19.8348 11.946C20.5808 11.946 20.9538 12.3629 21.4146 12.8895C21.6703 13.2178 21.9735 13.5062 22.3141 13.7452C22.5201 13.8785 22.7952 13.8195 22.9285 13.6135C23.0618 13.4076 23.0029 13.1325 22.7969 12.9992Z" fill="#FFEBB9"/>
<path d="M5.24424 8.80857C5.58873 9.0162 5.89338 9.28372 6.1438 9.59844C6.64843 10.1908 7.24083 10.8491 8.3818 10.8491C9.52276 10.8491 10.1151 10.1909 10.6198 9.59844C11.1244 9.00604 11.4535 8.65499 12.1995 8.65499C12.9455 8.65499 13.3185 9.07189 13.7793 9.59844C14.24 10.125 14.8544 10.8491 16.0173 10.8491C17.1802 10.8491 17.7506 10.1909 18.2553 9.59844C18.7599 9.00604 19.089 8.65499 19.835 8.65499C20.581 8.65499 20.954 9.07189 21.4147 9.59844C21.6705 9.92677 21.9736 10.2152 22.3143 10.4542C22.5203 10.5875 22.7954 10.5285 22.9287 10.3225C23.062 10.1165 23.0031 9.84143 22.797 9.70813C22.5191 9.51499 22.2746 9.27784 22.073 9.00604C21.5902 8.45752 20.9759 7.77734 19.835 7.77734C18.694 7.77734 18.1016 8.43555 17.597 9.028C17.0923 9.6204 16.7632 9.97145 16.0172 9.97145C15.2712 9.97145 14.8982 9.55455 14.4375 9.028C13.9767 8.50141 13.3624 7.77734 12.1995 7.77734C11.0366 7.77734 10.4662 8.43555 9.96149 9.028C9.45686 9.6204 9.12774 9.97145 8.38175 9.97145C7.63577 9.97145 7.26284 9.55455 6.80205 9.02796C6.48884 8.61429 6.09278 8.27055 5.63917 8.01866C5.42104 7.90959 5.15583 7.99799 5.04677 8.21612C4.9377 8.43425 5.02615 8.6995 5.24424 8.80857Z" fill="#FFEBB9"/>
</svg>
