<svg width="28" height="29" viewBox="0 0 28 29" fill="none" xmlns="http://www.w3.org/2000/svg">
<rect y="0.359375" width="28" height="28" rx="4" fill="black"/>
<path d="M22.8737 18.1643V19.1432C22.8737 19.791 22.4432 20.345 21.8399 20.5613C21.8402 20.586 21.8408 20.6105 21.8408 20.6351V23.3044C23.0952 23.0571 24.0408 21.999 24.0408 20.7351V18.1641L22.8737 18.1643Z" fill="#FFEBB9"/>
<path d="M14.7675 10.8077V9.78417C14.7675 8.89818 14.4219 8.03945 13.794 7.36583C13.2062 6.73526 12.4331 6.33459 11.5976 6.22341C11.4127 6.05337 11.075 5.74316 10.7364 5.43353C10.4436 5.16565 10.2096 4.95227 10.0403 4.79934C9.94329 4.71164 9.86196 4.63858 9.80428 4.5877C9.67809 4.47637 9.44341 4.26893 9.09566 4.40302L8.7235 4.54682L8.77233 6.74497L8.68062 6.80788C8.08217 7.21869 7.68132 7.851 7.57833 8.54506L5.98195 9.55673L5.97661 10.2518C5.9728 10.7819 6.18703 11.2809 6.5801 11.657C6.97332 12.0332 7.497 12.2403 8.05501 12.2403H9.27068V13.2595C9.27068 13.7659 9.35628 14.2661 9.52474 14.7465L10.4259 17.3148V21.2159C9.48049 21.4269 8.77309 22.2345 8.77095 23.1957L8.76897 23.3576L12.2484 23.3581C12.3436 22.4924 13.0121 21.7856 13.8855 21.5883V20.908C13.8855 19.0467 15.4793 17.5326 17.4384 17.5326H17.5243V18.6414H17.4384C16.1229 18.6414 15.0527 19.6582 15.0527 20.908V22.642H14.3812C13.9194 22.642 13.5311 22.9483 13.4295 23.3582L20.7081 23.3594V20.6352C20.7081 18.2151 19.7532 15.9058 18.0193 14.1328L14.7675 10.8077Z" fill="#FFEBB9"/>
</svg>
