<svg width="112" height="92" viewBox="0 0 112 92" fill="none" xmlns="http://www.w3.org/2000/svg">
<path d="M111.153 48.1146C111.083 48.0568 110.981 48.0384 110.902 48.0651C110.805 48.0948 110.717 48.1207 110.633 48.1451L110.592 48.1571C110.385 48.2174 110.207 48.2691 110.03 48.34C107.239 49.4478 105.042 51.3458 103.313 54.1421C102.885 54.833 102.555 55.5512 102.291 56.2675C102.723 53.8583 102.823 52.9198 102.9 50.2241C102.904 50.111 102.904 49.9959 102.904 49.8817C102.904 49.5698 102.904 49.2752 102.972 49.0065C103.053 48.6879 103.218 48.3703 103.377 48.0629C103.422 47.9759 103.467 47.8889 103.504 47.8124C103.516 47.7974 103.558 47.7721 103.574 47.7696C104.372 47.6479 105.078 47.3094 105.732 46.7349C106.392 46.1532 106.934 45.4411 107.344 44.6179C108.817 41.6673 109.554 38.4061 109.536 34.9258C109.534 34.59 109.495 34.2632 109.451 33.9077C109.431 33.7485 109.411 33.5856 109.395 33.4169C109.385 33.3243 109.328 33.2421 109.246 33.202C109.164 33.1626 109.066 33.1654 108.983 33.2151C108.933 33.2462 108.891 33.2715 108.852 33.294C108.777 33.3385 108.72 33.3733 108.666 33.4122C107.41 34.3118 106.302 35.4319 105.372 36.7404C103.855 38.8791 102.973 41.2974 102.735 43.9578C102.712 43.6612 102.688 43.3647 102.664 43.0681L102.656 42.9606C102.562 41.798 102.466 40.5956 102.388 39.4133C102.368 39.114 102.31 38.8227 102.255 38.5409C102.147 37.9992 102.046 37.4875 102.208 36.9514C102.245 36.8302 102.276 36.7082 102.308 36.5864C102.384 36.2849 102.755 35.8205 103.325 35.3127L103.346 35.2935C103.556 35.1156 104.635 34.1295 105.247 32.179C105.869 30.1973 105.822 28.1267 105.787 26.6147L105.786 26.5744C105.741 24.4961 105.516 22.9299 105.058 21.4955C104.998 21.3121 104.928 21.1311 104.853 20.941C104.815 20.8421 104.775 20.7398 104.734 20.6328C104.701 20.5422 104.621 20.4763 104.527 20.4607L104.481 20.4566C104.4 20.4566 104.324 20.493 104.273 20.5558L103.827 21.098C101.692 23.7001 100.642 26.7518 100.708 30.1687C100.719 30.7704 100.765 31.3877 100.844 32.025C100.302 30.1537 99.665 28.3321 98.9411 26.5797C98.9261 26.5414 98.9163 26.4938 98.9152 26.4535L98.9102 26.214C98.9027 25.8682 98.8949 25.5105 98.9097 25.1587C98.9119 25.1003 98.9497 24.9955 99.0285 24.8924C99.1403 24.7448 99.2644 24.6006 99.3929 24.4505C99.6119 24.1959 99.8381 23.933 100.017 23.6328C100.594 22.6673 100.865 21.5266 100.87 20.0427C100.878 18.2959 100.608 16.4577 100.02 14.2573C99.6992 13.0569 99.2146 11.4974 98.312 10.0835C98.2508 9.98849 98.1824 9.899 98.1095 9.80422C98.0767 9.76225 98.0422 9.71751 98.0071 9.66943C97.9559 9.60078 97.8852 9.56075 97.7712 9.56075C97.6802 9.56742 97.599 9.61912 97.5536 9.69944C96.4207 11.742 95.8565 13.924 95.8297 16.3704C95.8069 18.4102 96.1258 20.1653 96.5256 21.5525C95.5081 19.6956 94.3774 17.9015 93.1519 16.1997L93.1238 16.1611C93.0959 16.1242 93.0843 16.1061 93.0862 16.1189C93.0091 15.5683 92.9557 15.1278 92.9187 14.7442C92.9196 14.7384 92.9268 14.7061 92.9841 14.6105C93.0651 14.4727 93.1538 14.3376 93.2481 14.1947C93.4373 13.9074 93.6326 13.61 93.7578 13.277C94.1357 12.272 94.2205 11.1322 94.0166 9.79366C93.5689 6.83117 92.2616 4.16356 90.0208 1.63798C89.7901 1.37867 89.5353 1.14938 89.2657 0.907018L89.1911 0.839481C89.0857 0.744149 88.9774 0.646595 88.8681 0.543482C88.7985 0.477334 88.6989 0.452598 88.6024 0.480947C88.5111 0.509852 88.4407 0.585449 88.419 0.679391L88.3701 0.893956C88.3367 1.03626 88.3108 1.14854 88.2916 1.26138C87.99 3.05961 88.012 4.98569 88.3592 7.15024C88.7037 9.29699 89.39 11.1486 90.4431 12.757C88.8639 10.8982 87.3279 9.33729 85.7225 7.95402C85.7153 7.94457 85.7047 7.91594 85.7039 7.90872C85.8294 6.82895 85.5628 5.81171 84.8884 4.79892C84.0028 3.4679 82.7723 2.45344 81.2309 1.78418C80.3086 1.38451 79.3529 1.0307 78.4173 0.684116C77.969 0.517912 77.5208 0.352264 77.0593 0.174664C76.5955 -0.00960549 76.3971 -0.0424017 76.2894 0.0570984C76.1509 0.18606 76.1843 0.296122 76.2446 0.496234L76.2641 0.561547C76.8297 2.46483 77.5804 3.97012 78.5594 5.16329C80.3567 7.35591 82.4587 8.46986 84.9822 8.56825C85.0707 8.57353 85.1408 8.59799 85.1694 8.62023C85.5247 8.88593 85.7862 9.09855 86.0174 9.30922C86.7486 9.97682 87.4686 10.6881 88.1731 11.4371C87.1253 10.7867 85.8447 10.4932 84.4024 10.566C83.613 10.6058 82.8296 10.7214 82.072 10.8331L82.043 10.8376C81.8191 10.8704 81.5962 10.9029 81.3739 10.9343C80.887 11.0002 80.3962 11.0863 79.9628 11.1619C79.7872 11.1933 79.3679 11.2887 79.2714 11.4918C79.238 11.5613 79.2408 11.6375 79.2786 11.7067C79.312 11.767 79.3487 11.8237 79.3888 11.8754C80.64 13.4971 82.0672 14.5652 83.7522 15.1403C85.8065 15.8451 87.6934 15.787 89.3889 14.9579C89.6482 14.8154 89.9609 14.7431 90.3182 14.7431C90.5878 14.7431 90.79 14.7856 90.8571 14.8009C90.9575 14.8176 91.0939 14.8737 91.1217 14.9099C92.1761 16.2948 93.1769 17.774 94.1115 19.3279C93.3219 18.5608 92.2922 18.0436 90.8894 17.7067C89.6599 17.414 88.4029 17.3512 87.1876 17.2901L86.7806 17.2695C86.3994 17.2501 86.0183 17.2259 85.6257 17.2011L84.9674 17.1606C84.8823 17.1606 84.8013 17.2017 84.7518 17.2701C84.697 17.3437 84.6839 17.4393 84.7162 17.5252C84.7426 17.5969 84.7908 17.7234 84.8155 17.7656C86.0973 19.9074 87.6025 21.3888 89.4165 22.2948C91.1898 23.1798 92.7921 23.4138 94.4083 23.0277C94.5953 22.9827 94.812 22.9588 95.036 22.9588C95.7235 22.9588 96.2028 23.1684 96.3036 23.3624C97.1928 25.1948 97.9862 27.0989 98.6707 29.0411C97.9529 28.0525 96.949 27.2495 95.6781 26.6489C94.4156 26.0536 93.1009 25.5094 91.8075 24.9738C91.2516 24.7443 90.6935 24.5138 90.1379 24.2782C90.0553 24.242 89.9576 24.2495 89.8805 24.3004C89.8049 24.3507 89.7598 24.4346 89.7598 24.525C89.7598 24.6984 91.6044 29.8126 94.2834 31.8279C95.3762 32.6501 96.7223 33.4958 98.4197 33.5356C98.9277 33.5458 99.453 33.6176 99.8498 34.0681C99.9104 34.1398 99.9908 34.1957 100.078 34.2254C100.214 34.2699 100.251 34.3527 100.318 34.6351C100.868 36.9408 101.268 39.3174 101.515 41.7307C101.44 41.4858 101.354 41.2385 101.254 40.9881C100.655 39.4692 99.6456 38.1401 98.0786 36.8052C97.2709 36.1142 96.4251 35.4452 95.6072 34.7979L95.5682 34.7674C95.1957 34.4725 94.824 34.1787 94.4534 33.8813C94.3769 33.8199 94.3023 33.7565 94.2158 33.6826L93.9846 33.4847C93.9036 33.4163 93.7832 33.4022 93.6886 33.4494C93.5915 33.4986 93.5333 33.6003 93.5408 33.709C93.5522 33.8721 93.5614 34.0264 93.57 34.1745L93.5745 34.2437C93.5928 34.5486 93.6101 34.8363 93.641 35.1203C93.9309 37.8861 94.7541 40.1951 96.1578 42.1793C97.0267 43.4058 98.2731 44.905 100.217 45.614C100.69 45.7874 101.033 46.0501 101.4 46.5214C101.747 46.9628 101.812 47.3661 101.804 47.8736C101.771 49.9995 101.619 52.1085 101.352 54.1738C101.289 53.599 101.157 53.0073 100.953 52.3925C100.532 51.1196 99.8762 49.8819 98.9472 48.609C98.1454 47.5067 97.311 46.4005 96.5042 45.3302L96.4505 45.2588C96.1305 44.8349 95.8108 44.4105 95.4995 43.9953C95.4411 43.91 95.3568 43.8794 95.3081 43.8625C95.2391 43.8288 95.1567 43.8255 95.0836 43.8566C95.0118 43.8872 94.9567 43.9475 94.9325 44.0214L94.923 44.0503C94.9097 44.0893 94.8991 44.1237 94.8935 44.1582C94.3371 47.4728 94.6785 50.4425 95.9369 53.238C96.5515 54.6049 97.3758 56.1524 98.8293 57.2658C99.4928 57.7741 100.017 58.4873 100.304 59.2736C100.365 59.4428 100.363 59.5162 100.356 59.5446C99.741 62.0899 98.9375 64.5449 97.9606 66.8684C98.2122 65.6438 98.1949 64.3575 97.9078 63.0249C97.5002 61.136 96.7996 59.3055 96.1747 57.738L95.9875 57.2686C95.6945 56.534 95.3996 55.7936 95.095 55.0262C95.0563 54.9281 94.9631 54.8611 94.8387 54.855C94.7408 54.855 94.6506 54.9109 94.6039 55.0015L94.5057 55.186C94.4626 55.2669 94.4222 55.3422 94.3877 55.42C93.1307 58.2533 92.7062 61.1577 93.1265 64.0527C93.427 66.1227 93.9362 67.6049 94.7775 68.859C95.2129 69.5071 95.6266 70.2292 95.7018 71.1172C95.7196 71.3273 95.7112 71.4721 95.6175 71.6369C94.5563 73.4932 93.3666 75.245 92.0637 76.8726C92.0687 76.8637 92.0735 76.8548 92.0785 76.8459C93.0158 75.1347 93.0442 73.2845 92.9485 71.7C92.8659 70.3417 92.7101 68.9854 92.5601 67.6741L92.5515 67.5982C92.4911 67.073 92.431 66.5479 92.3762 66.0218C92.3445 65.7236 92.3091 65.4254 92.2727 65.1227L92.2246 64.713C92.214 64.6224 92.1586 64.544 92.079 64.5046C91.931 64.4273 91.6915 64.5465 91.4327 64.8523C89.6546 66.9532 88.5512 69.3273 88.1528 71.909C87.7396 74.5858 87.9636 76.8765 88.8383 78.9121C88.8617 78.9663 88.8611 79.0769 88.8609 79.1139L88.8138 80.2851C88.8069 80.3693 88.7624 80.4643 88.7256 80.4996C86.95 82.2078 84.9952 83.6928 82.8975 84.9288C83.8904 84.0322 84.6043 82.8624 85.067 81.3799C85.5798 79.7367 85.843 78.0266 86.0981 76.3684L86.1204 76.2209C86.2108 75.6383 86.3051 75.0569 86.4014 74.4626L86.5102 73.7909C86.5257 73.6931 86.4871 73.5952 86.4111 73.5366C86.3357 73.4765 86.2267 73.4621 86.1398 73.4993L86.045 73.5385C85.9437 73.5799 85.8555 73.6169 85.7723 73.6594C81.8066 75.638 79.196 80.2528 79.5649 84.632C79.6228 85.3179 79.5599 85.9622 79.3724 86.6003C79.3549 86.6584 79.2987 86.7215 79.2759 86.732C77.3923 87.5255 75.6014 88.1045 73.7993 88.5019C73.7067 88.5233 73.6332 88.5894 73.6032 88.6787C73.5729 88.7684 73.5912 88.866 73.653 88.9394C73.8489 89.1712 74.0194 89.4205 74.1596 89.6814C74.2172 89.7882 74.3544 89.8429 74.4571 89.8162C75.9252 89.4816 77.355 89.0483 78.708 88.5275C78.8173 88.4836 78.9008 88.4627 78.979 88.4755C79.28 88.5155 79.598 88.5772 79.9511 88.6648C80.024 88.6826 80.0844 88.7162 80.0855 88.7131C80.8567 90.249 82.1822 91.2273 84.1389 91.7034C84.5646 91.8054 85.0036 91.8807 85.4437 91.9269C85.9045 91.9755 86.4183 92.0002 86.9706 92.0002C87.7357 92.0002 88.2813 91.953 88.288 91.9524C89.984 91.7629 91.4325 91.3816 92.7153 90.7865C93.2417 90.5428 93.8416 90.2145 94.3026 89.6284C94.3908 89.5161 94.376 89.354 94.2689 89.2598C92.9657 88.1111 91.6389 87.2765 90.2119 86.7084C88.0977 85.869 86.1718 85.6417 84.2841 86.0044C84.002 86.0591 83.7266 86.1281 83.4589 86.2073C85.2248 85.1528 86.9155 83.9135 88.5122 82.5016C88.5428 82.4738 88.5932 82.4493 88.6324 82.4424C88.8937 82.399 89.2406 82.3457 89.5956 82.3201C89.6285 82.3201 89.6702 82.3359 89.6749 82.3376C90.637 83.4132 91.8765 83.936 93.4643 83.936C93.5453 83.936 93.6265 83.9343 93.7075 83.9316C95.4338 83.876 97.1694 83.4021 98.8668 82.5224C100.1 81.8796 101.386 81.1311 102.429 80.0149C102.66 79.7667 102.867 79.486 103.049 79.2384L103.067 79.2142C103.148 79.105 103.229 78.9949 103.313 78.8862C103.358 78.8276 103.378 78.752 103.366 78.6758C103.353 78.6025 103.31 78.5372 103.238 78.4899C103.219 78.4799 102.778 78.2434 102.375 78.0875C99.6753 77.0455 96.9501 76.9388 94.3504 77.7756C93.4994 78.0488 92.6984 78.4591 91.9185 79.026C93.3608 77.3512 94.6963 75.5152 95.9088 73.5396C95.9218 73.5188 95.9563 73.4624 95.9675 73.4521C96.0735 73.3845 96.182 73.3206 96.2902 73.2575C96.4841 73.1439 96.685 73.0263 96.8736 72.8862C97.0328 72.7675 97.0776 72.7645 97.2384 72.8679C97.466 73.0155 97.7306 73.0922 97.9612 73.1525C99.3106 73.4977 100.671 73.3256 102.175 72.6199C103.55 71.9763 104.607 70.9587 105.544 69.9554C106.908 68.4918 107.799 67.1713 108.349 65.7995C108.464 65.5115 108.547 65.2139 108.632 64.9026C108.668 64.7719 108.704 64.6413 108.742 64.5129C108.784 64.3751 108.711 64.2291 108.575 64.1811L108.462 64.1724C107.905 64.1724 102.944 64.2539 100.042 67.0666C99.411 67.6786 98.8451 68.3289 98.3285 69.041C99.4764 66.6124 100.45 64.0529 101.234 61.3962L101.246 61.3573C101.255 61.3247 101.27 61.2755 101.279 61.2622L102.038 60.2211C102.066 60.1794 102.07 60.1794 102.114 60.1794C102.134 60.1794 102.156 60.1808 102.18 60.1821L102.343 60.1919C102.907 60.2269 103.24 60.2219 103.513 60.1791C104.594 60.0087 105.569 59.4651 106.495 58.5168C108.66 56.2989 110.15 53.5318 111.05 50.0581C111.147 49.686 111.174 49.3102 111.203 48.9117C111.216 48.731 111.23 48.5448 111.25 48.3525C111.259 48.2602 111.223 48.1721 111.153 48.1146Z" fill="#1C1D28"/>
<path d="M37.7019 88.4994C35.9016 88.1022 34.1109 87.5233 32.2268 86.7298C32.2043 86.7192 32.1484 86.6561 32.1308 86.5994C31.943 85.9599 31.8802 85.3157 31.938 84.6297C32.3069 80.2503 29.6964 75.6358 25.7315 73.6575C25.6472 73.6147 25.5592 73.5777 25.458 73.5363L25.3639 73.4974C25.2746 73.4593 25.1658 73.4751 25.0938 73.5329C25.0159 73.593 24.9772 73.6908 24.9931 73.7889L25.1016 74.4604C25.1978 75.0546 25.2922 75.6361 25.3826 76.2181L25.4054 76.3704C25.66 78.0243 25.9232 79.7347 26.4359 81.3779C26.8986 82.8604 27.6125 84.0302 28.6055 84.9265C26.5077 83.6908 24.5529 82.2058 22.7776 80.4979C22.7403 80.4621 22.6961 80.3671 22.6897 80.2887L22.6421 79.1166C22.6418 79.0749 22.6413 78.9643 22.6649 78.9096C23.5394 76.8745 23.7633 74.5838 23.3502 71.907C22.9518 69.3253 21.8483 66.9512 20.0702 64.8503C19.8621 64.6043 19.6785 64.4798 19.5243 64.4798C19.4868 64.4798 19.4528 64.4873 19.4261 64.5012C19.3443 64.5418 19.289 64.6205 19.2781 64.7113L19.2305 65.1202C19.1938 65.4237 19.1585 65.7216 19.1268 66.0201C19.072 66.546 19.0119 67.071 18.9515 67.5963L18.9429 67.6722C18.7926 68.9837 18.6368 70.34 18.5545 71.698C18.4588 73.2822 18.4871 75.1324 19.4245 76.844C19.4295 76.8526 19.4339 76.8617 19.4389 76.8704C18.136 75.2428 16.9466 73.4912 15.8855 71.6352C15.7917 71.4701 15.7837 71.3253 15.8012 71.1152C15.8766 70.2266 16.29 69.5046 16.7254 68.857C17.5665 67.603 18.0756 66.1207 18.3764 64.0507C18.7968 61.1557 18.3722 58.2516 17.1152 55.4184C17.0807 55.3403 17.0404 55.2649 16.9973 55.1841L16.899 54.999C16.852 54.9086 16.7516 54.8491 16.6456 54.8539C16.5399 54.8594 16.4467 54.9264 16.4083 55.0237C16.1033 55.7919 15.8084 56.532 15.5155 57.2666L15.3282 57.736C14.7033 59.3039 14.0025 61.1343 13.5952 63.0229C13.308 64.3556 13.2905 65.6419 13.5423 66.8664C12.5652 64.5432 11.762 62.0882 11.1468 59.5426C11.1399 59.5143 11.1376 59.4409 11.1986 59.2716C11.4863 58.4851 12.0101 57.7719 12.674 57.2635C14.1271 56.1502 14.9515 54.6026 15.5661 53.2357C16.8245 50.4403 17.1659 47.4706 16.6094 44.1562C16.6036 44.1215 16.593 44.087 16.5805 44.0495L16.5705 44.0195C16.5463 43.9453 16.4912 43.8852 16.4183 43.8538C16.3471 43.8241 16.2575 43.8296 16.2021 43.8569C16.1465 43.8772 16.0622 43.908 16.0073 43.9883C15.6924 44.4086 15.3727 44.8327 15.0528 45.2566L14.9991 45.328C14.1922 46.3983 13.3578 47.5045 12.556 48.6065C11.627 49.8797 10.971 51.1173 10.55 52.3903C10.3469 53.0051 10.2142 53.5968 10.1516 54.1715C9.88426 52.1062 9.73262 49.9975 9.69952 47.8713C9.69173 47.3638 9.75627 46.9606 10.1032 46.5189C10.4705 46.0481 10.8135 45.7852 11.2865 45.6118C13.2299 44.9025 14.4766 43.4036 15.3455 42.177C16.7491 40.1929 17.5723 37.8841 17.8623 35.1186C17.8931 34.834 17.9107 34.5461 17.9287 34.2415L17.9332 34.1723C17.9418 34.0241 17.951 33.8699 17.9627 33.7065C17.9699 33.5981 17.9118 33.4964 17.8147 33.4472C17.7206 33.3999 17.6002 33.4138 17.5184 33.483L17.2877 33.6803C17.2009 33.7543 17.1266 33.8176 17.0496 33.8793C16.6793 34.1765 16.3076 34.4705 15.935 34.7654L15.8961 34.796C15.0784 35.443 14.2326 36.112 13.4249 36.8029C11.8577 38.1381 10.8486 39.4672 10.249 40.9861C10.15 41.2365 10.0632 41.4842 9.98859 41.7293C10.2351 39.3157 10.6355 36.9388 11.1852 34.6328C11.252 34.3507 11.2893 34.2679 11.4264 34.2229C11.5127 34.1937 11.5931 34.1375 11.6518 34.0681C12.0505 33.6153 12.5755 33.5436 13.0841 33.5333C14.7812 33.4936 16.1273 32.6478 17.2198 31.8257C19.8988 29.8101 21.7434 24.6961 21.7434 24.5227C21.7434 24.4324 21.6984 24.3482 21.6219 24.2973C21.5465 24.2476 21.4446 24.2406 21.3678 24.2748C20.8097 24.5113 20.2516 24.7417 19.6737 24.9805C18.4023 25.5072 17.0877 26.0514 15.8251 26.6464C14.5545 27.247 13.5504 28.0502 12.8326 29.0386C13.5167 27.0967 14.3099 25.1928 15.198 23.3632C15.3001 23.1658 15.7798 22.9563 16.4675 22.9563C16.6912 22.9563 16.908 22.9802 17.0952 23.0252C18.7111 23.4121 20.3134 23.1775 22.0868 22.2923C23.901 21.3862 25.4062 19.9049 26.6883 17.7623C26.7127 17.7209 26.7609 17.5944 26.7868 17.5235C26.8193 17.4368 26.8062 17.3412 26.7523 17.2687C26.7022 17.1997 26.622 17.1586 26.5199 17.1586C26.5191 17.1586 26.5186 17.1586 26.5177 17.1586L25.8773 17.1989C25.4847 17.2236 25.1035 17.2478 24.7224 17.2673L24.3153 17.2878C23.1 17.349 21.843 17.4118 20.6133 17.7045C19.2108 18.0413 18.1811 18.5585 17.3915 19.3256C18.326 17.7717 19.3268 16.2931 20.381 14.9082C20.4094 14.8715 20.5454 14.8153 20.657 14.7967C20.7126 14.7837 20.9152 14.7411 21.1845 14.7411C21.5417 14.7411 21.8544 14.8137 22.1196 14.9593C23.8042 15.7823 25.6961 15.8434 27.7502 15.1386C29.4351 14.5635 30.8621 13.4954 32.113 11.8742C32.1536 11.822 32.1904 11.765 32.2238 11.705C32.2619 11.6358 32.2644 11.5596 32.231 11.4901C32.1342 11.2873 31.7152 11.1919 31.5388 11.1602C31.1059 11.0846 30.6154 10.9985 30.129 10.9326C29.9062 10.9015 29.683 10.869 29.4594 10.8359L29.4307 10.8314C28.6728 10.7197 27.8893 10.6041 27.1 10.5643C25.6577 10.4907 24.3771 10.7847 23.329 11.4357C24.0338 10.6864 24.7538 9.9754 25.485 9.30753C25.7162 9.09686 25.9777 8.88452 26.3341 8.61798C26.3616 8.59685 26.4317 8.57212 26.5177 8.56712C29.0437 8.46845 31.1456 7.35449 32.943 5.16215C33.922 3.96871 34.6727 2.46342 35.2383 0.560132L35.2578 0.494817C35.3181 0.294705 35.3515 0.184643 35.2127 0.055682C35.1056 -0.0438182 34.9169 -0.0143564 34.4267 0.179641C33.9816 0.35057 33.5336 0.516497 33.0737 0.68687C32.1497 1.02901 31.1941 1.38281 30.2718 1.78248C28.7304 2.45175 27.4996 3.4662 26.614 4.79723C25.9396 5.81002 25.673 6.82753 25.7985 7.90258C25.7977 7.91453 25.7871 7.94315 25.7854 7.94649C24.1765 9.33421 22.6385 10.8965 21.0593 12.7559C22.1124 11.1475 22.7987 9.29558 23.1432 7.14882C23.4904 4.98455 23.5124 3.0582 23.2108 1.25997C23.1916 1.1474 23.1657 1.03484 23.1326 0.89393L23.0834 0.676863C23.0611 0.583756 22.991 0.508436 22.8989 0.479531C22.8068 0.452293 22.7036 0.476473 22.6349 0.541788C22.5247 0.645457 22.4167 0.74329 22.3113 0.838343L22.237 0.905325C21.9671 1.14824 21.7123 1.37753 21.4816 1.63685C19.2406 4.16243 17.9335 6.83003 17.4858 9.79225C17.2819 11.1311 17.3665 12.2709 17.7446 13.2759C17.8698 13.6088 18.0651 13.9062 18.2596 14.2014C18.3486 14.3362 18.4376 14.4715 18.5191 14.6105C18.5792 14.7103 18.5842 14.7361 18.584 14.7314C18.547 15.1275 18.4938 15.5688 18.422 16.0986C18.419 16.1052 18.409 16.1208 18.377 16.163L18.3511 16.1989C17.1255 17.9007 15.9948 19.6947 14.9774 21.5516C15.3775 20.1647 15.696 18.4093 15.6735 16.3695C15.6462 13.9229 15.0823 11.7408 13.9488 9.69775C13.904 9.61826 13.8228 9.56657 13.709 9.55878C13.6263 9.55878 13.5468 9.59964 13.4947 9.6694C13.4608 9.71665 13.4263 9.76112 13.3935 9.80336C13.3203 9.89786 13.2518 9.98736 13.1906 10.083C12.2881 11.4968 11.804 13.0557 11.4826 14.2561C10.8953 16.4576 10.6254 18.2959 10.6332 20.0416C10.6377 21.5255 10.9084 22.6661 11.4854 23.6314C11.6649 23.9318 11.8908 24.1948 12.1178 24.4593C12.2383 24.5997 12.3621 24.744 12.4742 24.8918C12.5527 24.9946 12.5905 25.0994 12.5927 25.1578C12.6075 25.5097 12.5997 25.8674 12.5922 26.2131L12.5869 26.4521C12.5861 26.4933 12.5766 26.5405 12.5624 26.5766C11.8379 28.3301 11.2011 30.1525 10.658 32.0241C10.7378 31.3868 10.7829 30.7698 10.7943 30.1678C10.86 26.7509 9.8108 23.6995 7.67518 21.0972L7.23002 20.5555C7.17855 20.4918 7.10232 20.4557 7.02108 20.4557L6.97656 20.4596C6.88141 20.4755 6.80128 20.5413 6.76818 20.6311C6.72756 20.7392 6.68777 20.8412 6.6491 20.9399C6.57453 21.1305 6.50414 21.3112 6.4446 21.4949C5.98637 22.9288 5.76157 24.4952 5.71594 26.573L5.71511 26.6136C5.68089 28.1253 5.63387 30.1962 6.25541 32.1778C6.86722 34.1287 7.94617 35.1145 8.15539 35.2915L8.17765 35.3115C8.74716 35.8193 9.11803 36.2837 9.19482 36.5853C9.22571 36.707 9.25714 36.8291 9.29387 36.9497C9.45635 37.4864 9.3548 37.9978 9.24518 38.55C9.19065 38.8288 9.13389 39.1167 9.11414 39.4122C9.03568 40.5945 8.93941 41.7968 8.84621 42.9594L8.83786 43.067C8.81394 43.3635 8.79001 43.6601 8.76636 43.9567C8.52876 41.2963 7.6468 38.878 6.12938 36.7393C5.20012 35.4308 4.09224 34.3113 2.8358 33.411C2.78154 33.3721 2.72451 33.3374 2.64828 33.2921C2.61127 33.2707 2.56843 33.2451 2.5164 33.2126C2.43794 33.1656 2.33722 33.1614 2.25626 33.2009C2.17335 33.2412 2.11632 33.3232 2.10686 33.416C2.08988 33.5842 2.07013 33.747 2.04926 33.916C2.00725 34.2621 1.96747 34.5889 1.9658 34.9247C1.94716 38.4049 2.68417 41.6662 4.15707 44.6167C4.56745 45.44 5.1097 46.1521 5.76936 46.734C6.42346 47.308 7.12931 47.6465 7.92585 47.7682C7.94338 47.7713 7.98512 47.7966 7.99152 47.8016C8.03464 47.888 8.07943 47.9747 8.12423 48.0617C8.28337 48.3688 8.4478 48.6865 8.5296 49.005C8.59776 49.2744 8.59776 49.5687 8.59776 49.8805C8.59776 49.9948 8.59776 50.1098 8.60138 50.2227C8.67789 52.9186 8.77833 53.8575 9.21012 56.2663C8.94665 55.5501 8.61584 54.8319 8.18877 54.141C6.45935 51.3447 4.26224 49.4467 1.47196 48.3391C1.29445 48.2677 1.11639 48.2163 0.909948 48.1562L0.868772 48.144C0.785027 48.1195 0.696274 48.0934 0.601401 48.0645C0.515709 48.0364 0.418053 48.0556 0.34822 48.1134C0.278664 48.171 0.242217 48.2591 0.251399 48.3508C0.271987 48.542 0.286176 48.7279 0.299253 48.9094C0.327909 49.3074 0.354897 49.6832 0.45144 50.0551C1.35176 53.529 2.84192 56.2958 5.00676 58.514C5.9324 59.4623 6.90784 60.0059 7.98873 60.1763C8.26139 60.2188 8.5947 60.2241 9.15893 60.1891L9.32141 60.1794C9.34618 60.178 9.36788 60.1766 9.38763 60.1766C9.43215 60.1766 9.43576 60.1766 9.46665 60.2222L10.2226 61.2591C10.2323 61.2727 10.2465 61.3219 10.2562 61.3558L10.2674 61.3931C11.052 64.0501 12.0254 66.6093 13.1734 69.0382C12.6567 68.3259 12.0906 67.6755 11.4595 67.0638C8.5577 64.2511 3.59645 64.1696 3.04029 64.1696L2.97101 64.1702L2.92733 64.1783C2.791 64.2266 2.71727 64.3723 2.75929 64.5093C2.79796 64.6385 2.83413 64.7691 2.87558 64.9226C2.95487 65.2108 3.03723 65.5084 3.15269 65.7964C3.70246 67.1688 4.5936 68.489 5.95772 69.9526C6.89504 70.9559 7.95173 71.9735 9.32587 72.6169C10.8308 73.3228 12.1896 73.4951 13.5409 73.1494C13.7707 73.0891 14.035 73.0126 14.2623 72.8653C14.4243 72.7617 14.4685 72.765 14.6277 72.8834C14.8163 73.0235 15.0169 73.1411 15.2116 73.255C15.3193 73.3181 15.4278 73.3817 15.5291 73.4457C15.5452 73.4593 15.5797 73.5157 15.5925 73.5366C16.805 75.5121 18.1408 77.3481 19.583 79.023C18.8029 78.456 18.0019 78.0457 17.1511 77.7725C14.5511 76.9357 11.826 77.0421 9.12694 78.0847C8.72407 78.2406 8.28253 78.4768 8.25304 78.4935C8.19128 78.5341 8.14871 78.5997 8.13536 78.675C8.12367 78.7489 8.14287 78.8245 8.18794 78.8823C8.27224 78.9918 8.35376 79.1019 8.43444 79.2111L8.45225 79.235C8.63448 79.4829 8.84093 79.7634 9.0724 80.0118C10.1149 81.1283 11.4006 81.8768 12.6348 82.5194C14.3319 83.399 16.0674 83.8729 17.7935 83.9285C17.8748 83.9313 17.956 83.9329 18.037 83.9329C19.6248 83.9329 20.8643 83.4101 21.8197 82.3409C21.8314 82.3326 21.8728 82.3167 21.8956 82.3165C22.2607 82.3426 22.6076 82.3957 22.8669 82.4388C22.9078 82.446 22.9582 82.4704 22.9896 82.4988C24.5857 83.9104 26.2762 85.1494 28.0421 86.2039C27.7744 86.1247 27.4987 86.0558 27.2166 86.0005C25.3294 85.6381 23.4036 85.8654 21.2888 86.7048C19.8621 87.2729 18.5353 88.1075 17.2324 89.2562C17.125 89.3504 17.1099 89.5124 17.1984 89.6247C17.6594 90.2109 18.2593 90.5391 18.7854 90.7826C20.0685 91.3782 21.517 91.7595 23.215 91.9491C23.22 91.9494 23.7656 91.9966 24.5307 91.9966C25.0829 91.9966 25.5968 91.9719 26.0573 91.9232C26.4974 91.8771 26.9364 91.8018 27.3624 91.6995C29.3188 91.2237 30.6446 90.2454 31.4041 88.7265C31.4177 88.7134 31.4762 88.6795 31.5502 88.6614C31.9032 88.5739 32.221 88.5122 32.5231 88.4719C32.5943 88.4605 32.6831 88.4796 32.7949 88.5247C34.146 89.0447 35.5758 89.478 37.0417 89.812C37.0623 89.8171 37.0837 89.8196 37.1051 89.8196C37.2036 89.8196 37.2943 89.7654 37.3422 89.677C37.4821 89.4168 37.6527 89.1673 37.8488 88.9352C37.9103 88.8621 37.9287 88.7648 37.8984 88.6748C37.8694 88.5875 37.796 88.5213 37.7019 88.4994Z" fill="#1C1D28"/>
<path fill-rule="evenodd" clip-rule="evenodd" d="M43.6902 28.4701C43.7033 27.9482 43.7236 27.4473 43.7501 26.9717H67.7501C67.7766 27.4473 67.7968 27.9482 67.81 28.4701H77.2504V29.9686C77.2504 32.9097 76.537 37.4067 74.3751 41.4728C72.2235 45.5194 68.5868 49.212 62.7809 50.3728C61.4488 52.0465 59.7938 53.2484 57.7502 53.7215V59.9375C57.7502 63.1342 60.0835 64.5994 61.2502 64.9324H50.2502C53.0502 64.9324 53.7502 61.6025 53.7502 59.9375V53.7215C51.5902 53.2215 49.8643 51.9074 48.4949 50.0824C43.3959 48.6767 40.1214 45.2271 38.1253 41.4728C35.9634 37.4067 35.25 32.9097 35.25 29.9686V28.4701H43.6902ZM43.695 31.467H38.3147C38.518 33.9372 39.2245 37.1515 40.7747 40.067C42.0168 42.403 43.7771 44.5134 46.2428 45.9282C44.5044 41.5378 43.8209 36.0697 43.695 31.467ZM64.9956 46.5622C68.136 45.1949 70.2813 42.7835 71.7256 40.067C73.2758 37.1515 73.9824 33.9372 74.1857 31.467H67.8052C67.6732 36.294 66.9278 42.0729 64.9956 46.5622ZM47.7502 65.9313V71.4257H63.7502V65.9313H47.7502Z" fill="#F2C94C"/>
</svg>
