<svg width="112" height="92" viewBox="0 0 112 92" fill="none" xmlns="http://www.w3.org/2000/svg">
<path d="M69.1974 52.6313L80.3763 41.7457C80.7552 41.3766 80.8921 40.8241 80.7283 40.3213C80.5647 39.818 80.1295 39.4511 79.6054 39.3752L64.1577 37.1342L57.2481 23.1506C57.0138 22.6761 56.5302 22.376 56.0008 22.376C55.4713 22.376 54.9875 22.6767 54.7535 23.1506L47.8464 37.1342L32.3962 39.3752C31.8723 39.4511 31.4369 39.8182 31.2733 40.3213C31.1095 40.8241 31.2461 41.3766 31.6253 41.7457L42.8042 52.6313L40.1667 68.0007C40.0771 68.5218 40.2916 69.0488 40.72 69.3595C41.148 69.6705 41.7155 69.7117 42.1849 69.4654L56.0013 62.21L69.8178 69.4654C70.0212 69.5724 70.2435 69.6249 70.4647 69.6249C70.7532 69.6249 71.04 69.5355 71.2824 69.3595C71.7108 69.0491 71.9256 68.5218 71.8358 68.0007L69.1974 52.6313Z" fill="#F2C94C"/>
<path d="M111.402 48.1146C111.332 48.0568 111.23 48.0384 111.151 48.0651C111.054 48.0948 110.966 48.1207 110.882 48.1451L110.841 48.1571C110.634 48.2174 110.456 48.2691 110.279 48.34C107.488 49.4478 105.291 51.3458 103.562 54.1421C103.134 54.833 102.804 55.5512 102.54 56.2675C102.972 53.8583 103.072 52.9198 103.149 50.2241C103.153 50.111 103.153 49.9959 103.153 49.8817C103.153 49.5698 103.153 49.2752 103.221 49.0065C103.303 48.6879 103.467 48.3703 103.626 48.0629C103.671 47.9759 103.716 47.8889 103.753 47.8124C103.765 47.7974 103.807 47.7721 103.823 47.7696C104.621 47.6479 105.327 47.3094 105.982 46.7349C106.641 46.1532 107.183 45.4411 107.594 44.6179C109.066 41.6673 109.803 38.4061 109.785 34.9258C109.783 34.59 109.744 34.2632 109.7 33.9077C109.68 33.7485 109.66 33.5856 109.644 33.4169C109.634 33.3243 109.577 33.2421 109.495 33.202C109.413 33.1626 109.315 33.1654 109.232 33.2151C109.182 33.2462 109.14 33.2715 109.101 33.294C109.026 33.3385 108.969 33.3733 108.915 33.4122C107.659 34.3118 106.551 35.4319 105.621 36.7404C104.104 38.8791 103.222 41.2974 102.985 43.9578C102.961 43.6612 102.937 43.3647 102.913 43.0681L102.905 42.9606C102.811 41.798 102.715 40.5956 102.637 39.4133C102.617 39.114 102.559 38.8227 102.504 38.5409C102.396 37.9992 102.295 37.4875 102.457 36.9514C102.494 36.8302 102.525 36.7082 102.557 36.5864C102.633 36.2849 103.004 35.8205 103.574 35.3127L103.595 35.2935C103.805 35.1156 104.884 34.1295 105.496 32.179C106.118 30.1973 106.071 28.1267 106.036 26.6147L106.035 26.5744C105.99 24.4961 105.765 22.9299 105.307 21.4955C105.247 21.3121 105.177 21.1311 105.102 20.941C105.064 20.8421 105.024 20.7398 104.984 20.6328C104.95 20.5422 104.87 20.4763 104.776 20.4607L104.73 20.4566C104.649 20.4566 104.573 20.493 104.522 20.5558L104.076 21.098C101.941 23.7001 100.891 26.7518 100.957 30.1687C100.969 30.7704 101.014 31.3877 101.093 32.025C100.551 30.1537 99.9141 28.3321 99.1901 26.5797C99.1751 26.5414 99.1654 26.4938 99.1642 26.4535L99.1592 26.214C99.1517 25.8682 99.1439 25.5105 99.1587 25.1587C99.1609 25.1003 99.1987 24.9955 99.2775 24.8924C99.3893 24.7448 99.5134 24.6006 99.642 24.4505C99.8609 24.1959 100.087 23.933 100.266 23.6328C100.843 22.6673 101.114 21.5266 101.119 20.0427C101.127 18.2959 100.857 16.4577 100.269 14.2573C99.9483 13.0569 99.4636 11.4974 98.5611 10.0835C98.4998 9.98849 98.4314 9.899 98.3585 9.80422C98.3257 9.76225 98.2912 9.71751 98.2561 9.66943C98.2049 9.60078 98.1343 9.56075 98.0202 9.56075C97.9292 9.56742 97.848 9.61912 97.8026 9.69944C96.6697 11.742 96.1055 13.924 96.0788 16.3704C96.056 18.4102 96.3748 20.1653 96.7746 21.5525C95.7571 19.6956 94.6265 17.9015 93.4009 16.1997L93.3728 16.1611C93.345 16.1242 93.3333 16.1061 93.3352 16.1189C93.2582 15.5683 93.2047 15.1278 93.1677 14.7442C93.1686 14.7384 93.1758 14.7061 93.2331 14.6105C93.3141 14.4727 93.4028 14.3376 93.4972 14.1947C93.6863 13.9074 93.8817 13.61 94.0069 13.277C94.3847 12.272 94.4695 11.1322 94.2656 9.79366C93.8179 6.83117 92.5106 4.16356 90.2698 1.63798C90.0391 1.37867 89.7843 1.14938 89.5147 0.907018L89.4401 0.839481C89.3347 0.744149 89.2265 0.646595 89.1171 0.543482C89.0476 0.477334 88.948 0.452598 88.8514 0.480947C88.7602 0.509852 88.6898 0.585449 88.6681 0.679391L88.6191 0.893956C88.5857 1.03626 88.5598 1.14854 88.5406 1.26138C88.239 3.05961 88.261 4.98569 88.6082 7.15024C88.9527 9.29699 89.6391 11.1486 90.6921 12.757C89.1129 10.8982 87.5769 9.33729 85.9715 7.95402C85.9643 7.94457 85.9537 7.91594 85.9529 7.90872C86.0784 6.82895 85.8118 5.81171 85.1374 4.79892C84.2519 3.4679 83.0213 2.45344 81.4799 1.78418C80.5576 1.38451 79.6019 1.0307 78.6663 0.684116C78.2181 0.517912 77.7699 0.352264 77.3083 0.174664C76.8445 -0.00960549 76.6461 -0.0424017 76.5384 0.0570984C76.3999 0.18606 76.4333 0.296122 76.4937 0.496234L76.5131 0.561547C77.0788 2.46483 77.8294 3.97012 78.8085 5.16329C80.6058 7.35591 82.7077 8.46986 85.2312 8.56825C85.3197 8.57353 85.3898 8.59799 85.4184 8.62023C85.7737 8.88593 86.0353 9.09855 86.2665 9.30922C86.9976 9.97682 87.7177 10.6881 88.4221 11.4371C87.3743 10.7867 86.0937 10.4932 84.6514 10.566C83.8621 10.6058 83.0786 10.7214 82.321 10.8331L82.2921 10.8376C82.0681 10.8704 81.8452 10.9029 81.6229 10.9343C81.1361 11.0002 80.6453 11.0863 80.2118 11.1619C80.0362 11.1933 79.617 11.2887 79.5204 11.4918C79.487 11.5613 79.4898 11.6375 79.5277 11.7067C79.561 11.767 79.5978 11.8237 79.6378 11.8754C80.889 13.4971 82.3163 14.5652 84.0012 15.1403C86.0556 15.8451 87.9425 15.787 89.6379 14.9579C89.8972 14.8154 90.21 14.7431 90.5672 14.7431C90.8368 14.7431 91.0391 14.7856 91.1061 14.8009C91.2066 14.8176 91.3429 14.8737 91.3707 14.9099C92.4252 16.2948 93.4259 17.774 94.3605 19.3279C93.5709 18.5608 92.5412 18.0436 91.1384 17.7067C89.9089 17.414 88.6519 17.3512 87.4367 17.2901L87.0296 17.2695C86.6485 17.2501 86.2673 17.2259 85.8747 17.2011L85.2165 17.1606C85.1313 17.1606 85.0504 17.2017 85.0008 17.2701C84.946 17.3437 84.9329 17.4393 84.9652 17.5252C84.9916 17.5969 85.0398 17.7234 85.0645 17.7656C86.3463 19.9074 87.8515 21.3888 89.6655 22.2948C91.4389 23.1798 93.0411 23.4138 94.6573 23.0277C94.8443 22.9827 95.061 22.9588 95.285 22.9588C95.9725 22.9588 96.4519 23.1684 96.5526 23.3624C97.4418 25.1948 98.2353 27.0989 98.9197 29.0411C98.2019 28.0525 97.1981 27.2495 95.9271 26.6489C94.6646 26.0536 93.35 25.5094 92.0565 24.9738C91.5006 24.7443 90.9425 24.5138 90.3869 24.2782C90.3043 24.242 90.2066 24.2495 90.1296 24.3004C90.0539 24.3507 90.0088 24.4346 90.0088 24.525C90.0088 24.6984 91.8534 29.8126 94.5324 31.8279C95.6253 32.6501 96.9713 33.4958 98.6687 33.5356C99.1768 33.5458 99.702 33.6176 100.099 34.0681C100.159 34.1398 100.24 34.1957 100.327 34.2254C100.463 34.2699 100.5 34.3527 100.567 34.6351C101.117 36.9408 101.517 39.3174 101.764 41.7307C101.689 41.4858 101.603 41.2385 101.503 40.9881C100.904 39.4692 99.8946 38.1401 98.3276 36.8052C97.52 36.1142 96.6742 35.4452 95.8562 34.7979L95.8172 34.7674C95.4447 34.4725 95.073 34.1787 94.7024 33.8813C94.6259 33.8199 94.5513 33.7565 94.4648 33.6826L94.2336 33.4847C94.1526 33.4163 94.0322 33.4022 93.9376 33.4494C93.8405 33.4986 93.7823 33.6003 93.7898 33.709C93.8013 33.8721 93.8104 34.0264 93.8191 34.1745L93.8235 34.2437C93.8419 34.5486 93.8591 34.8363 93.89 35.1203C94.1799 37.8861 95.0032 40.1951 96.4068 42.1793C97.2757 43.4058 98.5221 44.905 100.466 45.614C100.939 45.7874 101.282 46.0501 101.649 46.5214C101.996 46.9628 102.061 47.3661 102.053 47.8736C102.02 49.9995 101.868 52.1085 101.601 54.1738C101.538 53.599 101.406 53.0073 101.202 52.3925C100.781 51.1196 100.125 49.8819 99.1962 48.609C98.3944 47.5067 97.56 46.4005 96.7532 45.3302L96.6995 45.2588C96.3795 44.8349 96.0598 44.4105 95.7485 43.9953C95.6901 43.91 95.6058 43.8794 95.5571 43.8625C95.4881 43.8288 95.4057 43.8255 95.3326 43.8566C95.2608 43.8872 95.2057 43.9475 95.1815 44.0214L95.172 44.0503C95.1587 44.0893 95.1481 44.1237 95.1426 44.1582C94.5861 47.4728 94.9275 50.4425 96.1859 53.238C96.8005 54.6049 97.6248 56.1524 99.0783 57.2658C99.7418 57.7741 100.266 58.4873 100.553 59.2736C100.614 59.4428 100.612 59.5162 100.605 59.5446C99.99 62.0899 99.1865 64.5449 98.2097 66.8684C98.4612 65.6438 98.4439 64.3575 98.1568 63.0249C97.7492 61.136 97.0486 59.3055 96.4238 57.738L96.2365 57.2686C95.9436 56.534 95.6486 55.7936 95.344 55.0262C95.3053 54.9281 95.2121 54.8611 95.0877 54.855C94.9898 54.855 94.8997 54.9109 94.8529 55.0015L94.7547 55.186C94.7116 55.2669 94.6712 55.3422 94.6368 55.42C93.3797 58.2533 92.9552 61.1577 93.3756 64.0527C93.676 66.1227 94.1852 67.6049 95.0265 68.859C95.462 69.5071 95.8757 70.2292 95.9508 71.1172C95.9686 71.3273 95.9602 71.4721 95.8665 71.6369C94.8053 73.4932 93.6157 75.245 92.3128 76.8726C92.3178 76.8637 92.3225 76.8548 92.3275 76.8459C93.2648 75.1347 93.2932 73.2845 93.1975 71.7C93.1149 70.3417 92.9591 68.9854 92.8091 67.6741L92.8005 67.5982C92.7401 67.073 92.68 66.5479 92.6252 66.0218C92.5935 65.7236 92.5582 65.4254 92.5217 65.1227L92.4736 64.713C92.463 64.6224 92.4076 64.544 92.3281 64.5046C92.1801 64.4273 91.9405 64.5465 91.6818 64.8523C89.9036 66.9532 88.8002 69.3273 88.4018 71.909C87.9886 74.5858 88.2126 76.8765 89.0873 78.9121C89.1107 78.9663 89.1102 79.0769 89.1099 79.1139L89.0629 80.2851C89.0559 80.3693 89.0114 80.4643 88.9747 80.4996C87.1991 82.2078 85.2443 83.6928 83.1465 84.9288C84.1395 84.0322 84.8534 82.8624 85.3161 81.3799C85.8288 79.7367 86.092 78.0266 86.3471 76.3684L86.3694 76.2209C86.4598 75.6383 86.5541 75.0569 86.6504 74.4626L86.7592 73.7909C86.7748 73.6931 86.7361 73.5952 86.6601 73.5366C86.5847 73.4765 86.4757 73.4621 86.3889 73.4993L86.294 73.5385C86.1927 73.5799 86.1045 73.6169 86.0213 73.6594C82.0556 75.638 79.445 80.2528 79.8139 84.632C79.8718 85.3179 79.8089 85.9622 79.6214 86.6003C79.6039 86.6584 79.5477 86.7215 79.5249 86.732C77.6413 87.5255 75.8504 88.1045 74.0484 88.5019C73.9557 88.5233 73.8823 88.5894 73.8522 88.6787C73.8219 88.7684 73.8403 88.866 73.902 88.9394C74.0979 89.1712 74.2684 89.4205 74.4087 89.6814C74.4663 89.7882 74.6034 89.8429 74.7061 89.8162C76.1743 89.4816 77.604 89.0483 78.957 88.5275C79.0664 88.4836 79.1498 88.4627 79.228 88.4755C79.529 88.5155 79.8471 88.5772 80.2001 88.6648C80.273 88.6826 80.3334 88.7162 80.3345 88.7131C81.1057 90.249 82.4312 91.2273 84.3879 91.7034C84.8136 91.8054 85.2526 91.8807 85.6928 91.9269C86.1535 91.9755 86.6674 92.0002 87.2196 92.0002C87.9847 92.0002 88.5303 91.953 88.537 91.9524C90.2331 91.7629 91.6815 91.3816 92.9644 90.7865C93.4908 90.5428 94.0906 90.2145 94.5516 89.6284C94.6398 89.5161 94.6251 89.354 94.518 89.2598C93.2148 88.1111 91.8879 87.2765 90.4609 86.7084C88.3467 85.869 86.4209 85.6417 84.5331 86.0044C84.251 86.0591 83.9756 86.1281 83.7079 86.2073C85.4738 85.1528 87.1646 83.9135 88.7613 82.5016C88.7919 82.4738 88.8422 82.4493 88.8815 82.4424C89.1427 82.399 89.4897 82.3457 89.8447 82.3201C89.8775 82.3201 89.9192 82.3359 89.924 82.3376C90.886 83.4132 92.1255 83.936 93.7133 83.936C93.7943 83.936 93.8755 83.9343 93.9565 83.9316C95.6829 83.876 97.4184 83.4021 99.1158 82.5224C100.349 81.8796 101.635 81.1311 102.678 80.0149C102.909 79.7667 103.116 79.486 103.298 79.2384L103.316 79.2142C103.397 79.105 103.478 78.9949 103.562 78.8862C103.607 78.8276 103.627 78.752 103.615 78.6758C103.602 78.6025 103.559 78.5372 103.487 78.4899C103.468 78.4799 103.027 78.2434 102.624 78.0875C99.9243 77.0455 97.1992 76.9388 94.5995 77.7756C93.7484 78.0488 92.9474 78.4591 92.1675 79.026C93.6098 77.3512 94.9453 75.5152 96.1578 73.5396C96.1709 73.5188 96.2054 73.4624 96.2165 73.4521C96.3225 73.3845 96.431 73.3206 96.5392 73.2575C96.7331 73.1439 96.934 73.0263 97.1227 72.8862C97.2818 72.7675 97.3266 72.7645 97.4874 72.8679C97.715 73.0155 97.9796 73.0922 98.2102 73.1525C99.5596 73.4977 100.92 73.3256 102.424 72.6199C103.799 71.9763 104.856 70.9587 105.793 69.9554C107.157 68.4918 108.048 67.1713 108.598 65.7995C108.713 65.5115 108.796 65.2139 108.881 64.9026C108.917 64.7719 108.953 64.6413 108.991 64.5129C109.033 64.3751 108.96 64.2291 108.824 64.1811L108.711 64.1724C108.154 64.1724 103.193 64.2539 100.291 67.0666C99.66 67.6786 99.0941 68.3289 98.5775 69.041C99.7254 66.6124 100.699 64.0529 101.483 61.3962L101.495 61.3573C101.504 61.3247 101.519 61.2755 101.528 61.2622L102.287 60.2211C102.315 60.1794 102.319 60.1794 102.363 60.1794C102.383 60.1794 102.405 60.1808 102.429 60.1821L102.592 60.1919C103.156 60.2269 103.489 60.2219 103.762 60.1791C104.843 60.0087 105.818 59.4651 106.744 58.5168C108.909 56.2989 110.399 53.5318 111.299 50.0581C111.396 49.686 111.423 49.3102 111.452 48.9117C111.465 48.731 111.479 48.5448 111.499 48.3525C111.508 48.2602 111.472 48.1721 111.402 48.1146Z" fill="#1C1D28"/>
<path d="M37.951 88.4994C36.1506 88.1022 34.36 87.5233 32.4758 86.7298C32.4533 86.7192 32.3974 86.6561 32.3799 86.5994C32.1921 85.9599 32.1292 85.3157 32.187 84.6297C32.556 80.2503 29.9454 75.6358 25.9805 73.6575C25.8962 73.6147 25.8083 73.5777 25.707 73.5363L25.613 73.4974C25.5236 73.4593 25.4149 73.4751 25.3428 73.5329C25.2649 73.593 25.2262 73.6908 25.2421 73.7889L25.3506 74.4604C25.4469 75.0546 25.5412 75.6361 25.6316 76.2181L25.6544 76.3704C25.909 78.0243 26.1722 79.7347 26.6849 81.3779C27.1476 82.8604 27.8615 84.0302 28.8545 84.9265C26.7567 83.6908 24.8019 82.2058 23.0266 80.4979C22.9893 80.4621 22.9451 80.3671 22.9387 80.2887L22.8911 79.1166C22.8908 79.0749 22.8903 78.9643 22.9139 78.9096C23.7884 76.8745 24.0124 74.5838 23.5992 71.907C23.2008 69.3253 22.0974 66.9512 20.3192 64.8503C20.1111 64.6043 19.9275 64.4798 19.7734 64.4798C19.7358 64.4798 19.7019 64.4873 19.6752 64.5012C19.5934 64.5418 19.538 64.6205 19.5271 64.7113L19.4796 65.1202C19.4428 65.4237 19.4075 65.7216 19.3758 66.0201C19.321 66.546 19.2609 67.071 19.2005 67.5963L19.1919 67.6722C19.0416 68.9837 18.8858 70.34 18.8035 71.698C18.7078 73.2822 18.7362 75.1324 19.6735 76.844C19.6785 76.8526 19.6829 76.8617 19.688 76.8704C18.385 75.2428 17.1956 73.4912 16.1345 71.6352C16.0408 71.4701 16.0327 71.3253 16.0502 71.1152C16.1256 70.2266 16.539 69.5046 16.9745 68.857C17.8155 67.603 18.3247 66.1207 18.6254 64.0507C19.0458 61.1557 18.6213 58.2516 17.3643 55.4184C17.3298 55.3403 17.2894 55.2649 17.2463 55.1841L17.1481 54.999C17.1011 54.9086 17.0006 54.8491 16.8946 54.8539C16.7889 54.8594 16.6957 54.9264 16.6573 55.0237C16.3524 55.7919 16.0574 56.532 15.7645 57.2666L15.5772 57.736C14.9524 59.3039 14.2515 61.1343 13.8442 63.0229C13.5571 64.3556 13.5395 65.6419 13.7913 66.8664C12.8142 64.5432 12.011 62.0882 11.3958 59.5426C11.3889 59.5143 11.3867 59.4409 11.4476 59.2716C11.7353 58.4851 12.2592 57.7719 12.923 57.2635C14.3762 56.1502 15.2005 54.6026 15.8151 53.2357C17.0735 50.4403 17.4149 47.4706 16.8584 44.1562C16.8526 44.1215 16.842 44.087 16.8295 44.0495L16.8195 44.0195C16.7953 43.9453 16.7402 43.8852 16.6673 43.8538C16.5961 43.8241 16.5065 43.8296 16.4511 43.8569C16.3955 43.8772 16.3112 43.908 16.2564 43.9883C15.9414 44.4086 15.6218 44.8327 15.3018 45.2566L15.2481 45.328C14.4413 46.3983 13.6069 47.5045 12.805 48.6065C11.8761 49.8797 11.22 51.1173 10.7991 52.3903C10.596 53.0051 10.4632 53.5968 10.4006 54.1715C10.1333 52.1062 9.98165 49.9975 9.94854 47.8713C9.94075 47.3638 10.0053 46.9606 10.3522 46.5189C10.7195 46.0481 11.0625 45.7852 11.5355 45.6118C13.4789 44.9025 14.7256 43.4036 15.5945 42.177C16.9981 40.1929 17.8214 37.8841 18.1113 35.1186C18.1422 34.834 18.1597 34.5461 18.1778 34.2415L18.1822 34.1723C18.1908 34.0241 18.2 33.8699 18.2117 33.7065C18.2189 33.5981 18.1608 33.4964 18.0637 33.4472C17.9697 33.3999 17.8492 33.4138 17.7674 33.483L17.5367 33.6803C17.4499 33.7543 17.3757 33.8176 17.2986 33.8793C16.9283 34.1765 16.5566 34.4705 16.184 34.7654L16.1451 34.796C15.3274 35.443 14.4816 36.112 13.6739 36.8029C12.1067 38.1381 11.0976 39.4672 10.498 40.9861C10.399 41.2365 10.3122 41.4842 10.2376 41.7293C10.4841 39.3157 10.8845 36.9388 11.4342 34.6328C11.501 34.3507 11.5383 34.2679 11.6755 34.2229C11.7617 34.1937 11.8421 34.1375 11.9008 34.0681C12.2995 33.6153 12.8245 33.5436 13.3331 33.5333C15.0303 33.4936 16.3763 32.6478 17.4689 31.8257C20.1479 29.8101 21.9925 24.6961 21.9925 24.5227C21.9925 24.4324 21.9474 24.3482 21.8709 24.2973C21.7955 24.2476 21.6937 24.2406 21.6169 24.2748C21.0588 24.5113 20.5006 24.7417 19.9228 24.9805C18.6513 25.5072 17.3367 26.0514 16.0741 26.6464C14.8035 27.247 13.7994 28.0502 13.0816 29.0386C13.7657 27.0967 14.5589 25.1928 15.447 23.3632C15.5491 23.1658 16.0288 22.9563 16.7166 22.9563C16.9402 22.9563 17.157 22.9802 17.3442 23.0252C18.9601 23.4121 20.5624 23.1775 22.3358 22.2923C24.1501 21.3862 25.6552 19.9049 26.9373 17.7623C26.9618 17.7209 27.0099 17.5944 27.0358 17.5235C27.0683 17.4368 27.0553 17.3412 27.0013 17.2687C26.9512 17.1997 26.8711 17.1586 26.769 17.1586C26.7681 17.1586 26.7676 17.1586 26.7667 17.1586L26.1263 17.1989C25.7337 17.2236 25.3525 17.2478 24.9714 17.2673L24.5643 17.2878C23.3491 17.349 22.0921 17.4118 20.8623 17.7045C19.4598 18.0413 18.4301 18.5585 17.6405 19.3256C18.5751 17.7717 19.5758 16.2931 20.63 14.9082C20.6584 14.8715 20.7944 14.8153 20.906 14.7967C20.9617 14.7837 21.1642 14.7411 21.4335 14.7411C21.7908 14.7411 22.1035 14.8137 22.3686 14.9593C24.0532 15.7823 25.9452 15.8434 27.9993 15.1386C29.6842 14.5635 31.1112 13.4954 32.362 11.8742C32.4027 11.822 32.4394 11.765 32.4728 11.705C32.5109 11.6358 32.5134 11.5596 32.48 11.4901C32.3832 11.2873 31.9642 11.1919 31.7878 11.1602C31.3549 11.0846 30.8644 10.9985 30.3781 10.9326C30.1552 10.9015 29.9321 10.869 29.7084 10.8359L29.6797 10.8314C28.9218 10.7197 28.1384 10.6041 27.3491 10.5643C25.9068 10.4907 24.6261 10.7847 23.578 11.4357C24.2828 10.6864 25.0028 9.9754 25.734 9.30753C25.9652 9.09686 26.2267 8.88452 26.5831 8.61798C26.6107 8.59685 26.6808 8.57212 26.7667 8.56712C29.2927 8.46845 31.3947 7.35449 33.192 5.16215C34.171 3.96871 34.9217 2.46342 35.4873 0.560132L35.5068 0.494817C35.5672 0.294705 35.6005 0.184643 35.4617 0.055682C35.3546 -0.0438182 35.166 -0.0143564 34.6757 0.179641C34.2306 0.35057 33.7826 0.516497 33.3227 0.68687C32.3988 1.02901 31.4431 1.38281 30.5208 1.78248C28.9794 2.45175 27.7486 3.4662 26.863 4.79723C26.1886 5.81002 25.9221 6.82753 26.0475 7.90258C26.0467 7.91453 26.0361 7.94315 26.0345 7.94649C24.4255 9.33421 22.8875 10.8965 21.3083 12.7559C22.3614 11.1475 23.0478 9.29558 23.3922 7.14882C23.7394 4.98455 23.7614 3.0582 23.4598 1.25997C23.4406 1.1474 23.4147 1.03484 23.3816 0.89393L23.3324 0.676863C23.3101 0.583756 23.24 0.508436 23.1479 0.479531C23.0558 0.452293 22.9526 0.476473 22.8839 0.541788C22.7737 0.645457 22.6658 0.74329 22.5603 0.838343L22.486 0.905325C22.2162 1.14824 21.9613 1.37753 21.7307 1.63685C19.4896 4.16243 18.1825 6.83003 17.7348 9.79225C17.5309 11.1311 17.6155 12.2709 17.9936 13.2759C18.1188 13.6088 18.3141 13.9062 18.5086 14.2014C18.5976 14.3362 18.6866 14.4715 18.7682 14.6105C18.8283 14.7103 18.8333 14.7361 18.833 14.7314C18.796 15.1275 18.7428 15.5688 18.6711 16.0986C18.668 16.1052 18.658 16.1208 18.626 16.163L18.6001 16.1989C17.3745 17.9007 16.2439 19.6947 15.2264 21.5516C15.6265 20.1647 15.945 18.4093 15.9225 16.3695C15.8952 13.9229 15.3313 11.7408 14.1978 9.69775C14.153 9.61826 14.0718 9.56657 13.958 9.55878C13.8754 9.55878 13.7958 9.59964 13.7438 9.6694C13.7098 9.71665 13.6753 9.76112 13.6425 9.80336C13.5693 9.89786 13.5009 9.98736 13.4397 10.083C12.5371 11.4968 12.053 13.0557 11.7317 14.2561C11.1443 16.4576 10.8745 18.2959 10.8823 20.0416C10.8867 21.5255 11.1574 22.6661 11.7344 23.6314C11.9139 23.9318 12.1398 24.1948 12.3668 24.4593C12.4873 24.5997 12.6111 24.744 12.7232 24.8918C12.8017 24.9946 12.8395 25.0994 12.8418 25.1578C12.8565 25.5097 12.8487 25.8674 12.8412 26.2131L12.8359 26.4521C12.8351 26.4933 12.8256 26.5405 12.8114 26.5766C12.0869 28.3301 11.4501 30.1525 10.907 32.0241C10.9869 31.3868 11.0319 30.7698 11.0433 30.1678C11.109 26.7509 10.0598 23.6995 7.9242 21.0972L7.47905 20.5555C7.42758 20.4918 7.35134 20.4557 7.2701 20.4557L7.22559 20.4596C7.13044 20.4755 7.05031 20.5413 7.0172 20.6311C6.97658 20.7392 6.93679 20.8412 6.89812 20.9399C6.82356 21.1305 6.75317 21.3112 6.69363 21.4949C6.2354 22.9288 6.01059 24.4952 5.96497 26.573L5.96413 26.6136C5.92991 28.1253 5.88289 30.1962 6.50444 32.1778C7.11625 34.1287 8.19519 35.1145 8.40441 35.2915L8.42667 35.3115C8.99619 35.8193 9.36706 36.2837 9.44385 36.5853C9.47473 36.707 9.50617 36.8291 9.54289 36.9497C9.70537 37.4864 9.60382 37.9978 9.4942 38.55C9.43967 38.8288 9.38292 39.1167 9.36316 39.4122C9.2847 40.5945 9.18844 41.7968 9.09523 42.9594L9.08689 43.067C9.06296 43.3635 9.03903 43.6601 9.01539 43.9567C8.77778 41.2963 7.89582 38.878 6.3784 36.7393C5.44914 35.4308 4.34127 34.3113 3.08482 33.411C3.03057 33.3721 2.97353 33.3374 2.8973 33.2921C2.8603 33.2707 2.81745 33.2451 2.76542 33.2126C2.68696 33.1656 2.58625 33.1614 2.50528 33.2009C2.42237 33.2412 2.36534 33.3232 2.35588 33.416C2.33891 33.5842 2.31915 33.747 2.29829 33.916C2.25628 34.2621 2.21649 34.5889 2.21482 34.9247C2.19618 38.4049 2.93319 41.6662 4.40609 44.6167C4.81647 45.44 5.35872 46.1521 6.01838 46.734C6.67248 47.308 7.37833 47.6465 8.17488 47.7682C8.19241 47.7713 8.23414 47.7966 8.24054 47.8016C8.28366 47.888 8.32846 47.9747 8.37325 48.0617C8.53239 48.3688 8.69682 48.6865 8.77862 49.005C8.84678 49.2744 8.84678 49.5687 8.84678 49.8805C8.84678 49.9948 8.84678 50.1098 8.8504 50.2227C8.92691 52.9186 9.02735 53.8575 9.45915 56.2663C9.19567 55.5501 8.86487 54.8319 8.4378 54.141C6.70837 51.3447 4.51126 49.4467 1.72098 48.3391C1.54347 48.2677 1.36541 48.2163 1.15897 48.1562L1.1178 48.144C1.03405 48.1195 0.945298 48.0934 0.850424 48.0645C0.764732 48.0364 0.667077 48.0556 0.597243 48.1134C0.527688 48.171 0.491241 48.2591 0.500422 48.3508C0.52101 48.542 0.5352 48.7279 0.548276 48.9094C0.576933 49.3074 0.60392 49.6832 0.700463 50.0551C1.60079 53.529 3.09094 56.2958 5.25578 58.514C6.18142 59.4623 7.15687 60.0059 8.23776 60.1763C8.51041 60.2188 8.84372 60.2241 9.40796 60.1891L9.57044 60.1794C9.5952 60.178 9.6169 60.1766 9.63665 60.1766C9.68117 60.1766 9.68479 60.1766 9.71567 60.2222L10.4716 61.2591C10.4813 61.2727 10.4955 61.3219 10.5053 61.3558L10.5164 61.3931C11.301 64.0501 12.2745 66.6093 13.4224 69.0382C12.9058 68.3259 12.3396 67.6755 11.7086 67.0638C8.80672 64.2511 3.84548 64.1696 3.28931 64.1696L3.22004 64.1702L3.17635 64.1783C3.04003 64.2266 2.9663 64.3723 3.00831 64.5093C3.04698 64.6385 3.08315 64.7691 3.12461 64.9226C3.2039 65.2108 3.28625 65.5084 3.40171 65.7964C3.95148 67.1688 4.84262 68.489 6.20674 69.9526C7.14407 70.9559 8.20075 71.9735 9.57489 72.6169C11.0798 73.3228 12.4386 73.4951 13.7899 73.1494C14.0198 73.0891 14.2841 73.0126 14.5114 72.8653C14.6733 72.7617 14.7175 72.765 14.8767 72.8834C15.0653 73.0235 15.2659 73.1411 15.4607 73.255C15.5683 73.3181 15.6768 73.3817 15.7781 73.4457C15.7942 73.4593 15.8287 73.5157 15.8415 73.5366C17.054 75.5121 18.3898 77.3481 19.8321 79.023C19.0519 78.456 18.2509 78.0457 17.4001 77.7725C14.8002 76.9357 12.075 77.0421 9.37596 78.0847C8.9731 78.2406 8.53156 78.4768 8.50207 78.4935C8.4403 78.5341 8.39773 78.5997 8.38438 78.675C8.37269 78.7489 8.39189 78.8245 8.43696 78.8823C8.52126 78.9918 8.60278 79.1019 8.68347 79.2111L8.70127 79.235C8.88351 79.4829 9.08995 79.7634 9.32143 80.0118C10.3639 81.1283 11.6496 81.8768 12.8838 82.5194C14.5809 83.399 16.3165 83.8729 18.0426 83.9285C18.1238 83.9313 18.205 83.9329 18.286 83.9329C19.8738 83.9329 21.1133 83.4101 22.0687 82.3409C22.0804 82.3326 22.1218 82.3167 22.1446 82.3165C22.5097 82.3426 22.8566 82.3957 23.1159 82.4388C23.1568 82.446 23.2072 82.4704 23.2386 82.4988C24.8348 83.9104 26.5252 85.1494 28.2911 86.2039C28.0235 86.1247 27.7477 86.0558 27.4656 86.0005C25.5785 85.6381 23.6526 85.8654 21.5378 86.7048C20.1111 87.2729 18.7843 88.1075 17.4814 89.2562C17.374 89.3504 17.359 89.5124 17.4474 89.6247C17.9085 90.2109 18.5083 90.5391 19.0344 90.7826C20.3176 91.3782 21.766 91.7595 23.464 91.9491C23.469 91.9494 24.0146 91.9966 24.7797 91.9966C25.332 91.9966 25.8458 91.9719 26.3063 91.9232C26.7464 91.8771 27.1855 91.8018 27.6114 91.6995C29.5679 91.2237 30.8936 90.2454 31.6531 88.7265C31.6668 88.7134 31.7252 88.6795 31.7992 88.6614C32.1523 88.5739 32.47 88.5122 32.7721 88.4719C32.8434 88.4605 32.9321 88.4796 33.044 88.5247C34.395 89.0447 35.8248 89.478 37.2907 89.812C37.3113 89.8171 37.3327 89.8196 37.3542 89.8196C37.4527 89.8196 37.5434 89.7654 37.5912 89.677C37.7312 89.4168 37.9017 89.1673 38.0979 88.9352C38.1593 88.8621 38.1777 88.7648 38.1474 88.6748C38.1184 88.5875 38.045 88.5213 37.951 88.4994Z" fill="#1C1D28"/>
</svg>
