<svg width="112" height="92" viewBox="0 0 112 92" fill="none" xmlns="http://www.w3.org/2000/svg">
<path d="M111.152 48.1146C111.082 48.0568 110.98 48.0384 110.901 48.0651C110.804 48.0948 110.716 48.1207 110.632 48.1451L110.591 48.1571C110.384 48.2174 110.206 48.2691 110.029 48.34C107.238 49.4478 105.041 51.3458 103.312 54.1421C102.884 54.833 102.554 55.5512 102.29 56.2675C102.722 53.8583 102.822 52.9198 102.899 50.2241C102.903 50.111 102.903 49.9959 102.903 49.8817C102.903 49.5698 102.903 49.2752 102.971 49.0065C103.053 48.6879 103.217 48.3703 103.376 48.0629C103.421 47.9759 103.466 47.8889 103.503 47.8124C103.515 47.7974 103.557 47.7721 103.573 47.7696C104.371 47.6479 105.077 47.3094 105.732 46.7349C106.391 46.1532 106.933 45.4411 107.344 44.6179C108.816 41.6673 109.553 38.4061 109.535 34.9258C109.533 34.59 109.494 34.2632 109.45 33.9077C109.43 33.7485 109.41 33.5856 109.394 33.4169C109.384 33.3243 109.327 33.2421 109.245 33.202C109.163 33.1626 109.065 33.1654 108.982 33.2151C108.932 33.2462 108.89 33.2715 108.851 33.294C108.776 33.3385 108.719 33.3733 108.665 33.4122C107.409 34.3118 106.301 35.4319 105.371 36.7404C103.854 38.8791 102.972 41.2974 102.735 43.9578C102.711 43.6612 102.687 43.3647 102.663 43.0681L102.655 42.9606C102.561 41.798 102.465 40.5956 102.387 39.4133C102.367 39.114 102.309 38.8227 102.254 38.5409C102.146 37.9992 102.045 37.4875 102.207 36.9514C102.244 36.8302 102.275 36.7082 102.307 36.5864C102.383 36.2849 102.754 35.8205 103.324 35.3127L103.345 35.2935C103.555 35.1156 104.634 34.1295 105.246 32.179C105.868 30.1973 105.821 28.1267 105.786 26.6147L105.785 26.5744C105.74 24.4961 105.515 22.9299 105.057 21.4955C104.997 21.3121 104.927 21.1311 104.852 20.941C104.814 20.8421 104.774 20.7398 104.734 20.6328C104.7 20.5422 104.62 20.4763 104.526 20.4607L104.48 20.4566C104.399 20.4566 104.323 20.493 104.272 20.5558L103.826 21.098C101.691 23.7001 100.641 26.7518 100.707 30.1687C100.719 30.7704 100.764 31.3877 100.843 32.025C100.301 30.1537 99.6641 28.3321 98.9401 26.5797C98.9251 26.5414 98.9154 26.4938 98.9142 26.4535L98.9092 26.214C98.9017 25.8682 98.8939 25.5105 98.9087 25.1587C98.9109 25.1003 98.9487 24.9955 99.0275 24.8924C99.1393 24.7448 99.2634 24.6006 99.392 24.4505C99.6109 24.1959 99.8371 23.933 100.016 23.6328C100.593 22.6673 100.864 21.5266 100.869 20.0427C100.877 18.2959 100.607 16.4577 100.019 14.2573C99.6983 13.0569 99.2136 11.4974 98.3111 10.0835C98.2498 9.98849 98.1814 9.899 98.1085 9.80422C98.0757 9.76225 98.0412 9.71751 98.0061 9.66943C97.9549 9.60078 97.8843 9.56075 97.7702 9.56075C97.6792 9.56742 97.598 9.61912 97.5526 9.69944C96.4197 11.742 95.8555 13.924 95.8288 16.3704C95.806 18.4102 96.1248 20.1653 96.5246 21.5525C95.5071 19.6956 94.3765 17.9015 93.1509 16.1997L93.1228 16.1611C93.095 16.1242 93.0833 16.1061 93.0852 16.1189C93.0082 15.5683 92.9547 15.1278 92.9177 14.7442C92.9186 14.7384 92.9258 14.7061 92.9831 14.6105C93.0641 14.4727 93.1528 14.3376 93.2472 14.1947C93.4363 13.9074 93.6317 13.61 93.7569 13.277C94.1347 12.272 94.2195 11.1322 94.0156 9.79366C93.5679 6.83117 92.2606 4.16356 90.0198 1.63798C89.7891 1.37867 89.5343 1.14938 89.2647 0.907018L89.1901 0.839481C89.0847 0.744149 88.9765 0.646595 88.8671 0.543482C88.7976 0.477334 88.698 0.452598 88.6014 0.480947C88.5102 0.509852 88.4398 0.585449 88.4181 0.679391L88.3691 0.893956C88.3357 1.03626 88.3098 1.14854 88.2906 1.26138C87.989 3.05961 88.011 4.98569 88.3582 7.15024C88.7027 9.29699 89.3891 11.1486 90.4421 12.757C88.8629 10.8982 87.3269 9.33729 85.7215 7.95402C85.7143 7.94457 85.7037 7.91594 85.7029 7.90872C85.8284 6.82895 85.5618 5.81171 84.8874 4.79892C84.0019 3.4679 82.7713 2.45344 81.2299 1.78418C80.3076 1.38451 79.3519 1.0307 78.4163 0.684116C77.9681 0.517912 77.5199 0.352264 77.0583 0.174664C76.5945 -0.00960549 76.3961 -0.0424017 76.2884 0.0570984C76.1499 0.18606 76.1833 0.296122 76.2437 0.496234L76.2631 0.561547C76.8288 2.46483 77.5794 3.97012 78.5585 5.16329C80.3558 7.35591 82.4577 8.46986 84.9812 8.56825C85.0697 8.57353 85.1398 8.59799 85.1684 8.62023C85.5237 8.88593 85.7853 9.09855 86.0165 9.30922C86.7476 9.97682 87.4677 10.6881 88.1721 11.4371C87.1243 10.7867 85.8437 10.4932 84.4014 10.566C83.6121 10.6058 82.8286 10.7214 82.071 10.8331L82.0421 10.8376C81.8181 10.8704 81.5952 10.9029 81.3729 10.9343C80.8861 11.0002 80.3953 11.0863 79.9618 11.1619C79.7862 11.1933 79.367 11.2887 79.2704 11.4918C79.237 11.5613 79.2398 11.6375 79.2777 11.7067C79.311 11.767 79.3478 11.8237 79.3878 11.8754C80.639 13.4971 82.0663 14.5652 83.7512 15.1403C85.8056 15.8451 87.6925 15.787 89.3879 14.9579C89.6472 14.8154 89.96 14.7431 90.3172 14.7431C90.5868 14.7431 90.7891 14.7856 90.8561 14.8009C90.9566 14.8176 91.0929 14.8737 91.1207 14.9099C92.1752 16.2948 93.1759 17.774 94.1105 19.3279C93.3209 18.5608 92.2912 18.0436 90.8884 17.7067C89.6589 17.414 88.4019 17.3512 87.1867 17.2901L86.7796 17.2695C86.3985 17.2501 86.0173 17.2259 85.6247 17.2011L84.9665 17.1606C84.8813 17.1606 84.8004 17.2017 84.7508 17.2701C84.696 17.3437 84.6829 17.4393 84.7152 17.5252C84.7416 17.5969 84.7898 17.7234 84.8145 17.7656C86.0963 19.9074 87.6015 21.3888 89.4155 22.2948C91.1889 23.1798 92.7911 23.4138 94.4073 23.0277C94.5943 22.9827 94.811 22.9588 95.035 22.9588C95.7225 22.9588 96.2019 23.1684 96.3026 23.3624C97.1918 25.1948 97.9853 27.0989 98.6697 29.0411C97.9519 28.0525 96.9481 27.2495 95.6771 26.6489C94.4146 26.0536 93.1 25.5094 91.8065 24.9738C91.2506 24.7443 90.6925 24.5138 90.1369 24.2782C90.0543 24.242 89.9566 24.2495 89.8796 24.3004C89.8039 24.3507 89.7588 24.4346 89.7588 24.525C89.7588 24.6984 91.6034 29.8126 94.2824 31.8279C95.3753 32.6501 96.7213 33.4958 98.4187 33.5356C98.9268 33.5458 99.452 33.6176 99.8488 34.0681C99.9094 34.1398 99.9898 34.1957 100.077 34.2254C100.213 34.2699 100.25 34.3527 100.317 34.6351C100.867 36.9408 101.267 39.3174 101.514 41.7307C101.439 41.4858 101.353 41.2385 101.253 40.9881C100.654 39.4692 99.6446 38.1401 98.0776 36.8052C97.27 36.1142 96.4242 35.4452 95.6062 34.7979L95.5672 34.7674C95.1947 34.4725 94.823 34.1787 94.4524 33.8813C94.3759 33.8199 94.3013 33.7565 94.2148 33.6826L93.9836 33.4847C93.9026 33.4163 93.7822 33.4022 93.6876 33.4494C93.5905 33.4986 93.5323 33.6003 93.5398 33.709C93.5513 33.8721 93.5604 34.0264 93.5691 34.1745L93.5735 34.2437C93.5919 34.5486 93.6091 34.8363 93.64 35.1203C93.9299 37.8861 94.7532 40.1951 96.1568 42.1793C97.0257 43.4058 98.2721 44.905 100.216 45.614C100.689 45.7874 101.032 46.0501 101.399 46.5214C101.746 46.9628 101.811 47.3661 101.803 47.8736C101.77 49.9995 101.618 52.1085 101.351 54.1738C101.288 53.599 101.156 53.0073 100.952 52.3925C100.531 51.1196 99.8752 49.8819 98.9462 48.609C98.1444 47.5067 97.31 46.4005 96.5032 45.3302L96.4495 45.2588C96.1295 44.8349 95.8098 44.4105 95.4985 43.9953C95.4401 43.91 95.3558 43.8794 95.3071 43.8625C95.2381 43.8288 95.1557 43.8255 95.0826 43.8566C95.0108 43.8872 94.9557 43.9475 94.9315 44.0214L94.922 44.0503C94.9087 44.0893 94.8981 44.1237 94.8926 44.1582C94.3361 47.4728 94.6775 50.4425 95.9359 53.238C96.5505 54.6049 97.3748 56.1524 98.8283 57.2658C99.4918 57.7741 100.016 58.4873 100.303 59.2736C100.364 59.4428 100.362 59.5162 100.355 59.5446C99.74 62.0899 98.9365 64.5449 97.9597 66.8684C98.2112 65.6438 98.1939 64.3575 97.9068 63.0249C97.4992 61.136 96.7986 59.3055 96.1738 57.738L95.9865 57.2686C95.6936 56.534 95.3986 55.7936 95.094 55.0262C95.0553 54.9281 94.9621 54.8611 94.8377 54.855C94.7398 54.855 94.6497 54.9109 94.6029 55.0015L94.5047 55.186C94.4616 55.2669 94.4212 55.3422 94.3868 55.42C93.1297 58.2533 92.7052 61.1577 93.1256 64.0527C93.426 66.1227 93.9352 67.6049 94.7765 68.859C95.212 69.5071 95.6257 70.2292 95.7008 71.1172C95.7186 71.3273 95.7102 71.4721 95.6165 71.6369C94.5553 73.4932 93.3657 75.245 92.0628 76.8726C92.0678 76.8637 92.0725 76.8548 92.0775 76.8459C93.0148 75.1347 93.0432 73.2845 92.9475 71.7C92.8649 70.3417 92.7091 68.9854 92.5591 67.6741L92.5505 67.5982C92.4901 67.073 92.43 66.5479 92.3752 66.0218C92.3435 65.7236 92.3082 65.4254 92.2717 65.1227L92.2236 64.713C92.213 64.6224 92.1576 64.544 92.0781 64.5046C91.9301 64.4273 91.6905 64.5465 91.4318 64.8523C89.6536 66.9532 88.5502 69.3273 88.1518 71.909C87.7386 74.5858 87.9626 76.8765 88.8373 78.9121C88.8607 78.9663 88.8602 79.0769 88.8599 79.1139L88.8129 80.2851C88.8059 80.3693 88.7614 80.4643 88.7247 80.4996C86.9491 82.2078 84.9943 83.6928 82.8965 84.9288C83.8895 84.0322 84.6034 82.8624 85.0661 81.3799C85.5788 79.7367 85.842 78.0266 86.0971 76.3684L86.1194 76.2209C86.2098 75.6383 86.3041 75.0569 86.4004 74.4626L86.5092 73.7909C86.5248 73.6931 86.4861 73.5952 86.4101 73.5366C86.3347 73.4765 86.2257 73.4621 86.1389 73.4993L86.044 73.5385C85.9427 73.5799 85.8545 73.6169 85.7713 73.6594C81.8056 75.638 79.195 80.2528 79.5639 84.632C79.6218 85.3179 79.5589 85.9622 79.3714 86.6003C79.3539 86.6584 79.2977 86.7215 79.2749 86.732C77.3913 87.5255 75.6004 88.1045 73.7984 88.5019C73.7057 88.5233 73.6323 88.5894 73.6022 88.6787C73.5719 88.7684 73.5903 88.866 73.652 88.9394C73.8479 89.1712 74.0184 89.4205 74.1587 89.6814C74.2163 89.7882 74.3534 89.8429 74.4561 89.8162C75.9243 89.4816 77.354 89.0483 78.707 88.5275C78.8164 88.4836 78.8998 88.4627 78.978 88.4755C79.279 88.5155 79.5971 88.5772 79.9501 88.6648C80.023 88.6826 80.0834 88.7162 80.0845 88.7131C80.8557 90.249 82.1812 91.2273 84.1379 91.7034C84.5636 91.8054 85.0026 91.8807 85.4428 91.9269C85.9035 91.9755 86.4174 92.0002 86.9696 92.0002C87.7347 92.0002 88.2803 91.953 88.287 91.9524C89.9831 91.7629 91.4315 91.3816 92.7144 90.7865C93.2408 90.5428 93.8406 90.2145 94.3016 89.6284C94.3898 89.5161 94.3751 89.354 94.268 89.2598C92.9648 88.1111 91.6379 87.2765 90.2109 86.7084C88.0967 85.869 86.1709 85.6417 84.2831 86.0044C84.001 86.0591 83.7256 86.1281 83.4579 86.2073C85.2238 85.1528 86.9146 83.9135 88.5113 82.5016C88.5419 82.4738 88.5922 82.4493 88.6315 82.4424C88.8927 82.399 89.2397 82.3457 89.5947 82.3201C89.6275 82.3201 89.6692 82.3359 89.674 82.3376C90.636 83.4132 91.8755 83.936 93.4633 83.936C93.5443 83.936 93.6255 83.9343 93.7065 83.9316C95.4329 83.876 97.1684 83.4021 98.8658 82.5224C100.099 81.8796 101.385 81.1311 102.428 80.0149C102.659 79.7667 102.866 79.486 103.048 79.2384L103.066 79.2142C103.147 79.105 103.228 78.9949 103.312 78.8862C103.357 78.8276 103.377 78.752 103.365 78.6758C103.352 78.6025 103.309 78.5372 103.237 78.4899C103.218 78.4799 102.777 78.2434 102.374 78.0875C99.6743 77.0455 96.9492 76.9388 94.3495 77.7756C93.4984 78.0488 92.6974 78.4591 91.9175 79.026C93.3598 77.3512 94.6953 75.5152 95.9078 73.5396C95.9209 73.5188 95.9554 73.4624 95.9665 73.4521C96.0725 73.3845 96.181 73.3206 96.2892 73.2575C96.4831 73.1439 96.684 73.0263 96.8727 72.8862C97.0318 72.7675 97.0766 72.7645 97.2374 72.8679C97.465 73.0155 97.7296 73.0922 97.9602 73.1525C99.3096 73.4977 100.67 73.3256 102.174 72.6199C103.549 71.9763 104.606 70.9587 105.543 69.9554C106.907 68.4918 107.798 67.1713 108.348 65.7995C108.463 65.5115 108.546 65.2139 108.631 64.9026C108.667 64.7719 108.703 64.6413 108.741 64.5129C108.783 64.3751 108.71 64.2291 108.574 64.1811L108.461 64.1724C107.904 64.1724 102.943 64.2539 100.041 67.0666C99.41 67.6786 98.8441 68.3289 98.3275 69.041C99.4754 66.6124 100.449 64.0529 101.233 61.3962L101.245 61.3573C101.254 61.3247 101.269 61.2755 101.278 61.2622L102.037 60.2211C102.065 60.1794 102.069 60.1794 102.113 60.1794C102.133 60.1794 102.155 60.1808 102.179 60.1821L102.342 60.1919C102.906 60.2269 103.239 60.2219 103.512 60.1791C104.593 60.0087 105.568 59.4651 106.494 58.5168C108.659 56.2989 110.149 53.5318 111.049 50.0581C111.146 49.686 111.173 49.3102 111.202 48.9117C111.215 48.731 111.229 48.5448 111.249 48.3525C111.258 48.2602 111.222 48.1721 111.152 48.1146Z" fill="#1C1D28"/>
<path d="M37.701 88.4994C35.9006 88.1022 34.11 87.5233 32.2258 86.7298C32.2033 86.7192 32.1474 86.6561 32.1299 86.5994C31.9421 85.9599 31.8792 85.3157 31.937 84.6297C32.306 80.2503 29.6954 75.6358 25.7305 73.6575C25.6462 73.6147 25.5583 73.5777 25.457 73.5363L25.363 73.4974C25.2736 73.4593 25.1649 73.4751 25.0928 73.5329C25.0149 73.593 24.9762 73.6908 24.9921 73.7889L25.1006 74.4604C25.1969 75.0546 25.2912 75.6361 25.3816 76.2181L25.4044 76.3704C25.659 78.0243 25.9222 79.7347 26.4349 81.3779C26.8976 82.8604 27.6115 84.0302 28.6045 84.9265C26.5067 83.6908 24.5519 82.2058 22.7766 80.4979C22.7393 80.4621 22.6951 80.3671 22.6887 80.2887L22.6411 79.1166C22.6408 79.0749 22.6403 78.9643 22.6639 78.9096C23.5384 76.8745 23.7624 74.5838 23.3492 71.907C22.9508 69.3253 21.8474 66.9512 20.0692 64.8503C19.8611 64.6043 19.6775 64.4798 19.5234 64.4798C19.4858 64.4798 19.4519 64.4873 19.4252 64.5012C19.3434 64.5418 19.288 64.6205 19.2771 64.7113L19.2296 65.1202C19.1928 65.4237 19.1575 65.7216 19.1258 66.0201C19.071 66.546 19.0109 67.071 18.9505 67.5963L18.9419 67.6722C18.7916 68.9837 18.6358 70.34 18.5535 71.698C18.4578 73.2822 18.4862 75.1324 19.4235 76.844C19.4285 76.8526 19.4329 76.8617 19.438 76.8704C18.135 75.2428 16.9456 73.4912 15.8845 71.6352C15.7908 71.4701 15.7827 71.3253 15.8002 71.1152C15.8756 70.2266 16.289 69.5046 16.7245 68.857C17.5655 67.603 18.0747 66.1207 18.3754 64.0507C18.7958 61.1557 18.3713 58.2516 17.1143 55.4184C17.0798 55.3403 17.0394 55.2649 16.9963 55.1841L16.8981 54.999C16.8511 54.9086 16.7506 54.8491 16.6446 54.8539C16.5389 54.8594 16.4457 54.9264 16.4073 55.0237C16.1024 55.7919 15.8074 56.532 15.5145 57.2666L15.3272 57.736C14.7024 59.3039 14.0015 61.1343 13.5942 63.0229C13.3071 64.3556 13.2895 65.6419 13.5413 66.8664C12.5642 64.5432 11.761 62.0882 11.1458 59.5426C11.1389 59.5143 11.1367 59.4409 11.1976 59.2716C11.4853 58.4851 12.0092 57.7719 12.673 57.2635C14.1262 56.1502 14.9505 54.6026 15.5651 53.2357C16.8235 50.4403 17.1649 47.4706 16.6084 44.1562C16.6026 44.1215 16.592 44.087 16.5795 44.0495L16.5695 44.0195C16.5453 43.9453 16.4902 43.8852 16.4173 43.8538C16.3461 43.8241 16.2565 43.8296 16.2011 43.8569C16.1455 43.8772 16.0612 43.908 16.0064 43.9883C15.6914 44.4086 15.3718 44.8327 15.0518 45.2566L14.9981 45.328C14.1913 46.3983 13.3569 47.5045 12.555 48.6065C11.6261 49.8797 10.97 51.1173 10.5491 52.3903C10.346 53.0051 10.2132 53.5968 10.1506 54.1715C9.88328 52.1062 9.73165 49.9975 9.69854 47.8713C9.69075 47.3638 9.7553 46.9606 10.1022 46.5189C10.4695 46.0481 10.8125 45.7852 11.2855 45.6118C13.2289 44.9025 14.4756 43.4036 15.3445 42.177C16.7481 40.1929 17.5714 37.8841 17.8613 35.1186C17.8922 34.834 17.9097 34.5461 17.9278 34.2415L17.9322 34.1723C17.9408 34.0241 17.95 33.8699 17.9617 33.7065C17.9689 33.5981 17.9108 33.4964 17.8137 33.4472C17.7197 33.3999 17.5992 33.4138 17.5174 33.483L17.2867 33.6803C17.1999 33.7543 17.1257 33.8176 17.0486 33.8793C16.6783 34.1765 16.3066 34.4705 15.934 34.7654L15.8951 34.796C15.0774 35.443 14.2316 36.112 13.4239 36.8029C11.8567 38.1381 10.8476 39.4672 10.248 40.9861C10.149 41.2365 10.0622 41.4842 9.98761 41.7293C10.2341 39.3157 10.6345 36.9388 11.1842 34.6328C11.251 34.3507 11.2883 34.2679 11.4255 34.2229C11.5117 34.1937 11.5921 34.1375 11.6508 34.0681C12.0495 33.6153 12.5745 33.5436 13.0831 33.5333C14.7803 33.4936 16.1263 32.6478 17.2189 31.8257C19.8979 29.8101 21.7425 24.6961 21.7425 24.5227C21.7425 24.4324 21.6974 24.3482 21.6209 24.2973C21.5455 24.2476 21.4437 24.2406 21.3669 24.2748C20.8088 24.5113 20.2506 24.7417 19.6728 24.9805C18.4013 25.5072 17.0867 26.0514 15.8241 26.6464C14.5535 27.247 13.5494 28.0502 12.8316 29.0386C13.5157 27.0967 14.3089 25.1928 15.197 23.3632C15.2991 23.1658 15.7788 22.9563 16.4666 22.9563C16.6902 22.9563 16.907 22.9802 17.0942 23.0252C18.7101 23.4121 20.3124 23.1775 22.0858 22.2923C23.9001 21.3862 25.4052 19.9049 26.6873 17.7623C26.7118 17.7209 26.7599 17.5944 26.7858 17.5235C26.8183 17.4368 26.8053 17.3412 26.7513 17.2687C26.7012 17.1997 26.6211 17.1586 26.519 17.1586C26.5181 17.1586 26.5176 17.1586 26.5167 17.1586L25.8763 17.1989C25.4837 17.2236 25.1025 17.2478 24.7214 17.2673L24.3143 17.2878C23.0991 17.349 21.8421 17.4118 20.6123 17.7045C19.2098 18.0413 18.1801 18.5585 17.3905 19.3256C18.3251 17.7717 19.3258 16.2931 20.38 14.9082C20.4084 14.8715 20.5444 14.8153 20.656 14.7967C20.7117 14.7837 20.9142 14.7411 21.1835 14.7411C21.5408 14.7411 21.8535 14.8137 22.1186 14.9593C23.8032 15.7823 25.6952 15.8434 27.7493 15.1386C29.4342 14.5635 30.8612 13.4954 32.112 11.8742C32.1527 11.822 32.1894 11.765 32.2228 11.705C32.2609 11.6358 32.2634 11.5596 32.23 11.4901C32.1332 11.2873 31.7142 11.1919 31.5378 11.1602C31.1049 11.0846 30.6144 10.9985 30.1281 10.9326C29.9052 10.9015 29.6821 10.869 29.4584 10.8359L29.4297 10.8314C28.6718 10.7197 27.8884 10.6041 27.0991 10.5643C25.6568 10.4907 24.3761 10.7847 23.328 11.4357C24.0328 10.6864 24.7528 9.9754 25.484 9.30753C25.7152 9.09686 25.9767 8.88452 26.3331 8.61798C26.3607 8.59685 26.4308 8.57212 26.5167 8.56712C29.0427 8.46845 31.1447 7.35449 32.942 5.16215C33.921 3.96871 34.6717 2.46342 35.2373 0.560132L35.2568 0.494817C35.3172 0.294705 35.3505 0.184643 35.2117 0.055682C35.1046 -0.0438182 34.916 -0.0143564 34.4257 0.179641C33.9806 0.35057 33.5326 0.516497 33.0727 0.68687C32.1488 1.02901 31.1931 1.38281 30.2708 1.78248C28.7294 2.45175 27.4986 3.4662 26.613 4.79723C25.9386 5.81002 25.6721 6.82753 25.7975 7.90258C25.7967 7.91453 25.7861 7.94315 25.7845 7.94649C24.1755 9.33421 22.6375 10.8965 21.0583 12.7559C22.1114 11.1475 22.7978 9.29558 23.1422 7.14882C23.4894 4.98455 23.5114 3.0582 23.2098 1.25997C23.1906 1.1474 23.1647 1.03484 23.1316 0.89393L23.0824 0.676863C23.0601 0.583756 22.99 0.508436 22.8979 0.479531C22.8058 0.452293 22.7026 0.476473 22.6339 0.541788C22.5237 0.645457 22.4158 0.74329 22.3103 0.838343L22.236 0.905325C21.9662 1.14824 21.7113 1.37753 21.4807 1.63685C19.2396 4.16243 17.9325 6.83003 17.4848 9.79225C17.2809 11.1311 17.3655 12.2709 17.7436 13.2759C17.8688 13.6088 18.0641 13.9062 18.2586 14.2014C18.3476 14.3362 18.4366 14.4715 18.5182 14.6105C18.5783 14.7103 18.5833 14.7361 18.583 14.7314C18.546 15.1275 18.4928 15.5688 18.4211 16.0986C18.418 16.1052 18.408 16.1208 18.376 16.163L18.3501 16.1989C17.1245 17.9007 15.9939 19.6947 14.9764 21.5516C15.3765 20.1647 15.695 18.4093 15.6725 16.3695C15.6452 13.9229 15.0813 11.7408 13.9478 9.69775C13.903 9.61826 13.8218 9.56657 13.708 9.55878C13.6254 9.55878 13.5458 9.59964 13.4938 9.6694C13.4598 9.71665 13.4253 9.76112 13.3925 9.80336C13.3193 9.89786 13.2509 9.98736 13.1897 10.083C12.2871 11.4968 11.803 13.0557 11.4817 14.2561C10.8943 16.4576 10.6245 18.2959 10.6323 20.0416C10.6367 21.5255 10.9074 22.6661 11.4844 23.6314C11.6639 23.9318 11.8898 24.1948 12.1168 24.4593C12.2373 24.5997 12.3611 24.744 12.4732 24.8918C12.5517 24.9946 12.5895 25.0994 12.5918 25.1578C12.6065 25.5097 12.5987 25.8674 12.5912 26.2131L12.5859 26.4521C12.5851 26.4933 12.5756 26.5405 12.5614 26.5766C11.8369 28.3301 11.2001 30.1525 10.657 32.0241C10.7369 31.3868 10.7819 30.7698 10.7933 30.1678C10.859 26.7509 9.80983 23.6995 7.6742 21.0972L7.22905 20.5555C7.17758 20.4918 7.10134 20.4557 7.0201 20.4557L6.97559 20.4596C6.88044 20.4755 6.80031 20.5413 6.7672 20.6311C6.72658 20.7392 6.68679 20.8412 6.64812 20.9399C6.57356 21.1305 6.50317 21.3112 6.44363 21.4949C5.9854 22.9288 5.76059 24.4952 5.71497 26.573L5.71413 26.6136C5.67991 28.1253 5.63289 30.1962 6.25444 32.1778C6.86625 34.1287 7.94519 35.1145 8.15441 35.2915L8.17667 35.3115C8.74619 35.8193 9.11706 36.2837 9.19385 36.5853C9.22473 36.707 9.25617 36.8291 9.29289 36.9497C9.45537 37.4864 9.35382 37.9978 9.2442 38.55C9.18967 38.8288 9.13292 39.1167 9.11316 39.4122C9.0347 40.5945 8.93844 41.7968 8.84523 42.9594L8.83689 43.067C8.81296 43.3635 8.78903 43.6601 8.76539 43.9567C8.52778 41.2963 7.64582 38.878 6.1284 36.7393C5.19914 35.4308 4.09127 34.3113 2.83482 33.411C2.78057 33.3721 2.72353 33.3374 2.6473 33.2921C2.6103 33.2707 2.56745 33.2451 2.51542 33.2126C2.43696 33.1656 2.33625 33.1614 2.25528 33.2009C2.17237 33.2412 2.11534 33.3232 2.10588 33.416C2.08891 33.5842 2.06915 33.747 2.04829 33.916C2.00628 34.2621 1.96649 34.5889 1.96482 34.9247C1.94618 38.4049 2.68319 41.6662 4.15609 44.6167C4.56647 45.44 5.10872 46.1521 5.76838 46.734C6.42248 47.308 7.12833 47.6465 7.92488 47.7682C7.94241 47.7713 7.98414 47.7966 7.99054 47.8016C8.03366 47.888 8.07846 47.9747 8.12325 48.0617C8.28239 48.3688 8.44682 48.6865 8.52862 49.005C8.59678 49.2744 8.59678 49.5687 8.59678 49.8805C8.59678 49.9948 8.59678 50.1098 8.6004 50.2227C8.67691 52.9186 8.77735 53.8575 9.20915 56.2663C8.94567 55.5501 8.61487 54.8319 8.1878 54.141C6.45837 51.3447 4.26126 49.4467 1.47098 48.3391C1.29347 48.2677 1.11541 48.2163 0.908972 48.1562L0.867795 48.144C0.784051 48.1195 0.695298 48.0934 0.600424 48.0645C0.514732 48.0364 0.417077 48.0556 0.347243 48.1134C0.277688 48.171 0.241241 48.2591 0.250422 48.3508C0.27101 48.542 0.2852 48.7279 0.298276 48.9094C0.326933 49.3074 0.35392 49.6832 0.450463 50.0551C1.35079 53.529 2.84094 56.2958 5.00578 58.514C5.93142 59.4623 6.90687 60.0059 7.98776 60.1763C8.26041 60.2188 8.59372 60.2241 9.15796 60.1891L9.32044 60.1794C9.3452 60.178 9.3669 60.1766 9.38665 60.1766C9.43117 60.1766 9.43479 60.1766 9.46567 60.2222L10.2216 61.2591C10.2313 61.2727 10.2455 61.3219 10.2553 61.3558L10.2664 61.3931C11.051 64.0501 12.0245 66.6093 13.1724 69.0382C12.6558 68.3259 12.0896 67.6755 11.4586 67.0638C8.55672 64.2511 3.59548 64.1696 3.03931 64.1696L2.97004 64.1702L2.92635 64.1783C2.79003 64.2266 2.7163 64.3723 2.75831 64.5093C2.79698 64.6385 2.83315 64.7691 2.87461 64.9226C2.9539 65.2108 3.03625 65.5084 3.15171 65.7964C3.70148 67.1688 4.59262 68.489 5.95674 69.9526C6.89407 70.9559 7.95075 71.9735 9.32489 72.6169C10.8298 73.3228 12.1886 73.4951 13.5399 73.1494C13.7698 73.0891 14.0341 73.0126 14.2614 72.8653C14.4233 72.7617 14.4675 72.765 14.6267 72.8834C14.8153 73.0235 15.0159 73.1411 15.2107 73.255C15.3183 73.3181 15.4268 73.3817 15.5281 73.4457C15.5442 73.4593 15.5787 73.5157 15.5915 73.5366C16.804 75.5121 18.1398 77.3481 19.5821 79.023C18.8019 78.456 18.0009 78.0457 17.1501 77.7725C14.5502 76.9357 11.825 77.0421 9.12596 78.0847C8.7231 78.2406 8.28156 78.4768 8.25207 78.4935C8.1903 78.5341 8.14773 78.5997 8.13438 78.675C8.12269 78.7489 8.14189 78.8245 8.18696 78.8823C8.27126 78.9918 8.35278 79.1019 8.43347 79.2111L8.45127 79.235C8.63351 79.4829 8.83995 79.7634 9.07143 80.0118C10.1139 81.1283 11.3996 81.8768 12.6338 82.5194C14.3309 83.399 16.0665 83.8729 17.7926 83.9285C17.8738 83.9313 17.955 83.9329 18.036 83.9329C19.6238 83.9329 20.8633 83.4101 21.8187 82.3409C21.8304 82.3326 21.8718 82.3167 21.8946 82.3165C22.2597 82.3426 22.6066 82.3957 22.8659 82.4388C22.9068 82.446 22.9572 82.4704 22.9886 82.4988C24.5848 83.9104 26.2752 85.1494 28.0411 86.2039C27.7735 86.1247 27.4977 86.0558 27.2156 86.0005C25.3285 85.6381 23.4026 85.8654 21.2878 86.7048C19.8611 87.2729 18.5343 88.1075 17.2314 89.2562C17.124 89.3504 17.109 89.5124 17.1974 89.6247C17.6585 90.2109 18.2583 90.5391 18.7844 90.7826C20.0676 91.3782 21.516 91.7595 23.214 91.9491C23.219 91.9494 23.7646 91.9966 24.5297 91.9966C25.082 91.9966 25.5958 91.9719 26.0563 91.9232C26.4964 91.8771 26.9355 91.8018 27.3614 91.6995C29.3179 91.2237 30.6436 90.2454 31.4031 88.7265C31.4168 88.7134 31.4752 88.6795 31.5492 88.6614C31.9023 88.5739 32.22 88.5122 32.5221 88.4719C32.5934 88.4605 32.6821 88.4796 32.794 88.5247C34.145 89.0447 35.5748 89.478 37.0407 89.812C37.0613 89.8171 37.0827 89.8196 37.1042 89.8196C37.2027 89.8196 37.2934 89.7654 37.3412 89.677C37.4812 89.4168 37.6517 89.1673 37.8479 88.9352C37.9093 88.8621 37.9277 88.7648 37.8974 88.6748C37.8684 88.5875 37.795 88.5213 37.701 88.4994Z" fill="#1C1D28"/>
<path fill-rule="evenodd" clip-rule="evenodd" d="M59.6983 19.7302C58.8989 17.3972 55.5994 17.3972 54.8 19.7302C54.221 21.4199 52.1435 22.0281 50.7427 20.9199C48.8097 19.3908 46.0323 21.1716 46.622 23.5647C47.0493 25.2986 45.6309 26.9335 43.8538 26.7579C41.4015 26.5156 40.0282 29.5152 41.8183 31.2087C43.1154 32.4359 42.8076 34.5774 41.2173 35.3896C39.0223 36.5106 39.493 39.7757 41.9148 40.2335C43.6694 40.5651 44.5687 42.5333 43.6699 44.0763C42.4296 46.2056 44.593 48.6964 46.878 47.7736C48.534 47.1048 50.3561 48.2736 50.4351 50.0578C50.5442 52.5208 53.7105 53.4486 55.1347 51.4362C56.1667 49.9781 58.3317 49.9781 59.3636 51.4362C60.7878 53.4486 63.9541 52.5208 64.0632 50.0578C64.1422 48.2736 65.9643 47.1048 67.6203 47.7736C69.9053 48.6964 72.0687 46.2056 70.8284 44.0763C69.9296 42.5333 70.8289 40.5651 72.5836 40.2335C75.0053 39.7757 75.476 36.5106 73.2811 35.3896C71.6908 34.5774 71.3829 32.4359 72.6801 31.2087C74.4702 29.5152 73.0969 26.5156 70.6446 26.7579C68.8675 26.9335 67.449 25.2986 67.8763 23.5647C68.4661 21.1716 65.6886 19.3908 63.7557 20.9199C62.3549 22.0281 60.2773 21.4199 59.6983 19.7302ZM57.2492 45.5486C62.772 45.5486 67.2492 41.076 67.2492 35.5589C67.2492 30.0418 62.772 25.5693 57.2492 25.5693C51.7263 25.5693 47.2492 30.0418 47.2492 35.5589C47.2492 41.076 51.7263 45.5486 57.2492 45.5486ZM63.249 35.5589C63.249 38.8692 60.5627 41.5527 57.249 41.5527C53.9353 41.5527 51.249 38.8692 51.249 35.5589C51.249 32.2486 53.9353 29.5651 57.249 29.5651C60.5627 29.5651 63.249 32.2486 63.249 35.5589ZM39.249 69.0243L46.249 51.5424C46.8335 51.9594 47.3162 52.5823 47.7912 53.1953C48.3924 53.971 48.9813 54.7311 49.749 55.0387C50.6101 55.3838 51.6576 55.2579 52.7375 55.1281C53.5793 55.0269 54.4408 54.9234 55.249 55.0387L48.749 72.5206L45.749 66.0274L39.249 69.0243ZM75.249 69.0243L68.249 51.5424C67.6658 51.9585 67.1318 52.5334 66.6018 53.104C65.8524 53.9107 65.1109 54.709 64.249 55.0387C63.4372 55.3493 62.5168 55.2361 61.5596 55.1184C60.8007 55.0251 60.0186 54.9289 59.249 55.0387L65.749 72.5206L68.749 66.0274L75.249 69.0243Z" fill="#F2C94C"/>
</svg>
