<svg width="28" height="28" viewBox="0 0 28 28" fill="none" xmlns="http://www.w3.org/2000/svg">
<g opacity="0.6">
<path d="M21.29 12.2812C20.8935 12.6813 20.5899 13.1642 20.4007 13.6955C20.2115 14.2268 20.1415 14.7934 20.1956 15.3549L20.1768 15.336C20.2324 15.997 20.1436 16.6622 19.9164 17.2852C19.6893 17.9081 19.3293 18.4739 18.8617 18.9429C18.3941 19.412 17.83 19.773 17.209 20.0008C16.5879 20.2286 15.9247 20.3177 15.2657 20.262L15.2845 20.2808C14.4963 20.2072 13.7045 20.3793 13.0173 20.7736C12.3301 21.1678 11.7809 21.7651 11.4445 22.4839C11.1081 23.2027 11.0009 24.0081 11.1376 24.7902C11.2742 25.5723 11.6481 26.2932 12.2081 26.8544C12.7682 27.4157 13.4872 27.79 14.2671 27.9263C15.047 28.0627 15.8499 27.9545 16.5662 27.6164C17.2825 27.2783 17.8775 26.7269 18.2699 26.0373C18.6624 25.3476 18.8332 24.5534 18.7591 23.7628L18.779 23.7817C18.7234 23.1207 18.8122 22.4555 19.0394 21.8325C19.2665 21.2096 19.6264 20.6438 20.0941 20.1748C20.5617 19.7057 21.1257 19.3447 21.7468 19.1169C22.3679 18.8891 23.0311 18.8 23.6901 18.8557L23.6702 18.8369C24.3141 18.8949 24.9622 18.789 25.5545 18.529C26.1467 18.2689 26.6639 17.8632 27.0582 17.3492C27.4525 16.8353 27.711 16.2298 27.8098 15.589C27.9087 14.9482 27.8447 14.2927 27.6237 13.6833C27.4027 13.0738 27.032 12.5302 26.5458 12.1028C26.0596 11.6754 25.4737 11.378 24.8424 11.2382C24.211 11.0984 23.5548 11.1207 22.9343 11.303C22.3139 11.4853 21.7494 11.8218 21.2931 12.2812H21.29Z" fill="#1D2130"/>
<path d="M13.5718 17.8063L13.5519 17.7874C14.112 17.844 14.6776 17.7751 15.2079 17.5855C15.7381 17.396 16.2198 17.0907 16.618 16.6916C17.0162 16.2925 17.321 15.8096 17.5103 15.2779C17.6997 14.7462 17.7688 14.1789 17.7128 13.6171L17.7327 13.6359C17.6771 12.975 17.7659 12.3098 17.9931 11.6868C18.2202 11.0638 18.5802 10.4981 19.0478 10.0291C19.5154 9.56002 20.0795 9.19899 20.7005 8.97117C21.3216 8.74335 21.9848 8.65422 22.6438 8.71002L22.6239 8.69113C23.4123 8.76539 24.2042 8.59392 24.8918 8.20011C25.5794 7.80631 26.1292 7.20934 26.4661 6.49064C26.803 5.77193 26.9107 4.96648 26.7744 4.18414C26.6382 3.40179 26.2646 2.68066 25.7047 2.11908C25.1449 1.55751 24.4259 1.18284 23.6459 1.04617C22.8659 0.909508 22.0629 1.0175 21.3463 1.35543C20.6298 1.69336 20.0346 2.24477 19.642 2.93444C19.2494 3.62412 19.0784 4.41849 19.1525 5.2092L19.1336 5.18926C19.1895 5.85027 19.1007 6.51553 18.8737 7.13859C18.6466 7.76165 18.2866 8.32747 17.819 8.79655C17.3513 9.26563 16.7872 9.62666 16.166 9.85441C15.5448 10.0822 14.8816 10.1712 14.2226 10.1152L14.2414 10.1351C13.6813 10.0785 13.1157 10.1475 12.5854 10.337C12.0551 10.5265 11.5735 10.8318 11.1753 11.2309C10.7771 11.63 10.4723 12.1129 10.283 12.6446C10.0936 13.1764 10.0244 13.7436 10.0805 14.3055L10.0616 14.2866C10.1171 14.9475 10.0281 15.6126 9.80088 16.2355C9.57368 16.8584 9.21373 17.4241 8.74615 17.8931C8.27856 18.3621 7.71459 18.7231 7.09358 18.951C6.47257 19.1789 5.80947 19.2681 5.15053 19.2125L5.16936 19.2314C4.38103 19.1571 3.58906 19.3286 2.90146 19.7224C2.21386 20.1162 1.66411 20.7132 1.3272 21.4319C0.990286 22.1506 0.882613 22.956 1.01887 23.7384C1.15512 24.5207 1.52866 25.2419 2.08855 25.8034C2.64843 26.365 3.3674 26.7397 4.14739 26.8763C4.92737 27.013 5.7304 26.905 6.44694 26.5671C7.16349 26.2292 7.75866 25.6777 8.15127 24.9881C8.54389 24.2984 8.71485 23.504 8.64081 22.7133L8.66069 22.7322C8.60506 22.0712 8.69392 21.4061 8.92105 20.7831C9.14819 20.1601 9.50813 19.5944 9.97576 19.1253C10.4434 18.6563 11.0074 18.2953 11.6285 18.0674C12.2496 17.8396 12.9128 17.7505 13.5718 17.8063Z" fill="#1D2130"/>
<path d="M6.55987 15.7002C6.95642 15.3001 7.26003 14.8172 7.44902 14.2859C7.63802 13.7545 7.70774 13.1879 7.6532 12.6264L7.67308 12.6453C7.61741 11.9842 7.70631 11.3188 7.93356 10.6957C8.16082 10.0725 8.52095 9.50666 8.98881 9.03758C9.45668 8.56851 10.021 8.20752 10.6423 7.97985C11.2637 7.75217 11.9271 7.66329 12.5863 7.71941L12.5664 7.70052C13.3544 7.77457 14.1461 7.60301 14.8334 7.20923C15.5207 6.81546 16.0701 6.21863 16.4068 5.50015C16.7435 4.78167 16.8511 3.97651 16.7148 3.19446C16.5786 2.41241 16.2052 1.69155 15.6455 1.13018C15.0858 0.568811 14.3671 0.194258 13.5874 0.0576002C12.8077 -0.0790577 12.005 0.0288327 11.2887 0.366557C10.5724 0.704281 9.97733 1.2554 9.58474 1.94476C9.19215 2.63411 9.0211 3.42815 9.09493 4.21859L9.0761 4.1997C9.13173 4.86067 9.04287 5.52585 8.81574 6.14883C8.5886 6.7718 8.22866 7.33754 7.76103 7.80658C7.29341 8.27562 6.72936 8.63665 6.10827 8.86447C5.48717 9.09229 4.82399 9.18141 4.16501 9.12562L4.18384 9.14451C3.53995 9.08659 2.8919 9.19263 2.29974 9.4528C1.70758 9.71297 1.19048 10.1188 0.796347 10.6328C0.402215 11.1468 0.143805 11.7523 0.0450646 12.3931C-0.0536755 13.0339 0.0104481 13.6894 0.231494 14.2987C0.45254 14.908 0.823356 15.4516 1.30958 15.8789C1.7958 16.3062 2.3817 16.6036 3.01298 16.7433C3.64427 16.8831 4.3005 16.8607 4.92089 16.6784C5.54128 16.496 6.10574 16.1596 6.56196 15.7002H6.55987Z" fill="#1D2130"/>
</g>
</svg>
