<svg width="20" height="20" viewBox="0 0 20 20" fill="none" xmlns="http://www.w3.org/2000/svg">
<g clip-path="url(#clip0_1_496)">
<path d="M20 9.99512C20 4.47227 15.5229 -0.00488281 10 -0.00488281C4.47715 -0.00488281 0 4.47227 0 9.99512C0 14.9863 3.65684 19.1234 8.4375 19.8736V12.8857H5.89844V9.99512H8.4375V7.79199C8.4375 5.28574 9.93047 3.90137 12.2146 3.90137C13.3084 3.90137 14.4531 4.09668 14.4531 4.09668V6.55762H13.1922C11.95 6.55762 11.5625 7.32852 11.5625 8.12012V9.99512H14.3359L13.8926 12.8857H11.5625V19.8736C16.3432 19.1234 20 14.9863 20 9.99512Z" fill="#1D2130"/>
</g>
<defs>
<clipPath id="clip0_1_496">
<rect width="20" height="20" fill="white" transform="translate(0 -0.00488281)"/>
</clipPath>
</defs>
</svg>
