<svg width="25" height="31" viewBox="0 0 25 31" fill="none" xmlns="http://www.w3.org/2000/svg">
<g opacity="0.6">
<path d="M14.0949 4.50246V0H0V30.9345H14.0949V26.4321C11.2076 26.4321 8.43851 25.2769 6.39684 23.2206C4.35518 21.1643 3.20818 18.3753 3.20818 15.4673C3.20818 12.5592 4.35518 9.77028 6.39684 7.71397C8.43851 5.65767 11.2076 4.50246 14.0949 4.50246Z" fill="#1D2130"/>
<path d="M14.0949 4.50246V26.4321C16.9823 26.4321 19.7513 25.2769 21.793 23.2206C23.8347 21.1643 24.9816 18.3753 24.9816 15.4673C24.9816 12.5592 23.8347 9.77028 21.793 7.71398C19.7513 5.65768 16.9823 4.50246 14.0949 4.50246Z" fill="#1D2130"/>
</g>
</svg>
