<svg width="29" height="29" viewBox="0 0 29 29" fill="none" xmlns="http://www.w3.org/2000/svg">
<path opacity="0.6" d="M27.3578 8.59588C26.8225 7.37475 26.114 6.23675 25.2541 5.21679C23.9828 3.66403 22.3964 2.39745 20.5992 1.50043C18.802 0.603408 16.8348 0.0962819 14.827 0.0124258C12.8191 -0.0714303 10.8163 0.269883 8.95022 1.01391C7.08415 1.75793 5.39718 2.88779 4.00033 4.32913C2.60348 5.77047 1.52843 7.4906 0.845927 9.37631C0.163425 11.262 -0.111052 13.2706 0.0405647 15.2697C0.192182 17.2689 0.766454 19.2134 1.72558 20.9751C2.68471 22.7369 4.00695 24.2761 5.60527 25.4913C6.63085 26.2867 7.76407 26.9332 8.97123 27.4118C10.6637 28.1037 12.4751 28.4602 14.3042 28.4612C18.0797 28.4528 21.698 26.9514 24.3657 24.2859C27.0335 21.6204 28.5331 18.0085 28.5359 14.2417C28.5386 12.2987 28.1375 10.3763 27.3578 8.59588ZM14.2937 2.8976C15.9362 2.89742 17.5589 3.25559 19.0481 3.94701C18.6849 4.10355 18.3031 4.21288 17.9121 4.27233C16.6252 4.45817 15.4331 5.05421 14.5137 5.9715C13.5943 6.88878 12.9968 8.0781 12.8105 9.36195C12.7288 10.082 12.4005 10.7518 11.8812 11.2584C11.3619 11.7651 10.6833 12.0774 9.95998 12.1429C8.67313 12.3287 7.48102 12.9248 6.5616 13.8421C5.64217 14.7593 5.04473 15.9487 4.85845 17.2325C4.79539 17.9171 4.5026 18.5605 4.02748 19.0585C3.20772 17.3304 2.83946 15.4235 2.95697 13.5152C3.07449 11.6069 3.67395 9.75936 4.69959 8.14437C5.72523 6.52939 7.1437 5.1995 8.823 4.27846C10.5023 3.35743 12.3878 2.87519 14.3042 2.87661L14.2937 2.8976ZM5.59476 21.5876C5.72098 21.4721 5.84721 21.3672 5.97343 21.2412C6.90922 20.3361 7.5099 19.1412 7.67744 17.8517C7.74538 17.1268 8.06979 16.4497 8.59256 15.9417C9.09561 15.4193 9.77272 15.0983 10.4964 15.0392C11.7833 14.8534 12.9754 14.2574 13.8948 13.3401C14.8142 12.4228 15.4117 11.2335 15.598 9.94962C15.6435 9.19144 15.9696 8.47713 16.5131 7.94525C17.0285 7.43298 17.7121 7.12367 18.438 7.07424C19.6202 6.91197 20.7228 6.38763 21.5936 5.57359C22.5851 6.3943 23.4252 7.38161 24.076 8.49094C24.036 8.54483 23.9901 8.59411 23.9392 8.63786C23.4371 9.16487 22.7609 9.49288 22.0354 9.56134C20.7472 9.74394 19.5533 10.3389 18.6333 11.2568C17.7132 12.1747 17.1169 13.3658 16.9338 14.651C16.8597 15.3734 16.5375 16.0481 16.0218 16.5606C15.5062 17.0732 14.8287 17.3921 14.1043 17.4634C12.8137 17.6478 11.6172 18.2427 10.6924 19.1596C9.76766 20.0765 9.16404 21.2666 8.97123 22.553C8.91463 23.0659 8.73808 23.5583 8.45582 23.9907C7.37661 23.3514 6.41004 22.5396 5.59476 21.5876ZM14.2937 25.6383C13.2263 25.6394 12.1641 25.4911 11.1381 25.1975C11.489 24.5448 11.7172 23.8334 11.8113 23.0987C11.885 22.3779 12.2057 21.7045 12.7192 21.1921C13.2328 20.6798 13.9077 20.3598 14.6303 20.2863C15.919 20.1025 17.1135 19.5074 18.035 18.59C18.9565 17.6725 19.5555 16.482 19.7423 15.1967C19.816 14.4758 20.1367 13.8024 20.6503 13.2901C21.1638 12.7777 21.8388 12.4578 22.5613 12.3842C23.5311 12.2584 24.4555 11.8982 25.2541 11.3348C25.6975 13.0117 25.75 14.7676 25.4076 16.4679C25.0652 18.1681 24.337 19.7675 23.2788 21.1434C22.2206 22.5193 20.8606 23.635 19.3031 24.4051C17.7456 25.1752 16.0319 25.5791 14.2937 25.5858V25.6383Z" fill="#1D2130"/>
</svg>
