<svg width="28" height="28" viewBox="0 0 28 28" fill="none" xmlns="http://www.w3.org/2000/svg">
<path opacity="0.6" fill-rule="evenodd" clip-rule="evenodd" d="M14 2.54545C7.67383 2.54545 2.54545 7.67383 2.54545 14C2.54545 20.3262 7.67383 25.4545 14 25.4545C20.3262 25.4545 25.4545 20.3262 25.4545 14C25.4545 7.67383 20.3262 2.54545 14 2.54545ZM0 14C0 6.26801 6.26801 0 14 0C21.732 0 28 6.26801 28 14C28 21.732 21.732 28 14 28C6.26801 28 0 21.732 0 14ZM13.9999 7.63668C10.4853 7.63668 7.63624 10.4858 7.63624 14.0003C7.63624 17.5149 10.4853 20.364 13.9999 20.364C17.5144 20.364 20.3635 17.5149 20.3635 14.0003C20.3635 10.4858 17.5144 7.63668 13.9999 7.63668ZM5.09079 14.0003C5.09079 9.07997 9.07952 5.09123 13.9999 5.09123C18.9202 5.09123 22.909 9.07997 22.909 14.0003C22.909 18.9207 18.9202 22.9094 13.9999 22.9094C9.07952 22.9094 5.09079 18.9207 5.09079 14.0003ZM12.7275 13.9998C12.7275 13.2969 13.2973 12.727 14.0002 12.727C14.7031 12.727 15.2729 13.2969 15.2729 13.9998C15.2729 14.7027 14.7031 15.2725 14.0002 15.2725C13.2973 15.2725 12.7275 14.7027 12.7275 13.9998ZM14.0002 10.1816C11.8915 10.1816 10.182 11.891 10.182 13.9998C10.182 16.1085 11.8915 17.8179 14.0002 17.8179C16.1089 17.8179 17.8184 16.1085 17.8184 13.9998C17.8184 11.891 16.1089 10.1816 14.0002 10.1816Z" fill="#1D2130"/>
</svg>
