<svg width="29" height="25" viewBox="0 0 29 25" fill="none" xmlns="http://www.w3.org/2000/svg">
<path opacity="0.6" d="M0.428957 10.794C1.20084 7.71181 2.9885 4.97477 5.50729 3.0187C8.02608 1.06263 11.1312 0 14.3282 0C17.5252 0 20.6303 1.06263 23.1491 3.0187C25.6679 4.97477 27.4556 7.71181 28.2275 10.794H26.972C24.8541 10.763 22.7796 11.3919 21.0398 12.5922C20.9394 12.6644 20.8346 12.7304 20.726 12.7897H20.5795C20.4708 12.7304 20.366 12.6644 20.2656 12.5922C18.5104 11.4196 16.4433 10.7934 14.3282 10.7934C12.2131 10.7934 10.146 11.4196 8.39082 12.5922C8.29041 12.6644 8.18559 12.7304 8.07695 12.7897H7.93048C7.82184 12.7304 7.71701 12.6644 7.61661 12.5922C5.87685 11.3919 3.80236 10.763 1.68444 10.794H0.428957ZM24.7121 17.3111C25.3566 16.8125 26.1554 16.5516 26.972 16.5732H28.6564V13.2366H26.972C25.5337 13.2194 24.1282 13.6641 22.9649 14.5047C22.3103 14.9842 21.5183 15.2429 20.705 15.2429C19.8917 15.2429 19.0998 14.9842 18.4452 14.5047C17.2524 13.6798 15.8339 13.2376 14.3805 13.2376C12.9272 13.2376 11.5087 13.6798 10.3159 14.5047C9.66127 14.9842 8.86933 15.2429 8.05602 15.2429C7.24272 15.2429 6.45078 14.9842 5.79615 14.5047C4.61851 13.6534 3.1929 13.208 1.73675 13.2366H0V16.5732H1.68444C2.50104 16.5516 3.29982 16.8125 3.94431 17.3111C5.13494 18.1366 6.55184 18.5792 8.00371 18.5792C9.45558 18.5792 10.8725 18.1366 12.0631 17.3111C12.7084 16.814 13.5066 16.5534 14.323 16.5732C15.1398 16.5499 15.9392 16.8109 16.5829 17.3111C17.7757 18.1361 19.1941 18.5783 20.6475 18.5783C22.1008 18.5783 23.5193 18.1361 24.7121 17.3111ZM24.7121 23.2774C25.3566 22.7787 26.1554 22.5179 26.972 22.5394H28.6564V19.2029H26.972C25.5337 19.1856 24.1282 19.6304 22.9649 20.471C22.3103 20.9504 21.5183 21.2091 20.705 21.2091C19.8917 21.2091 19.0998 20.9504 18.4452 20.471C17.2524 19.646 15.8339 19.2038 14.3805 19.2038C12.9272 19.2038 11.5087 19.646 10.3159 20.471C9.66127 20.9504 8.86933 21.2091 8.05602 21.2091C7.24272 21.2091 6.45078 20.9504 5.79615 20.471C4.61851 19.6196 3.1929 19.1743 1.73675 19.2029H0V22.5394H1.68444C2.50104 22.5179 3.29982 22.7787 3.94431 23.2774C5.13494 24.1028 6.55184 24.5454 8.00371 24.5454C9.45558 24.5454 10.8725 24.1028 12.0631 23.2774C12.7084 22.7803 13.5066 22.5196 14.323 22.5394C15.1398 22.5161 15.9392 22.7772 16.5829 23.2774C17.7757 24.1023 19.1941 24.5445 20.6475 24.5445C22.1008 24.5445 23.5193 24.1023 24.7121 23.2774Z" fill="#1D2130"/>
</svg>
