<svg width="32" height="31" viewBox="0 0 32 31" fill="none" xmlns="http://www.w3.org/2000/svg">
<path opacity="0.6" d="M31.1772 10.3687C31.1773 8.28001 30.5451 6.24003 29.3634 4.51591C28.1817 2.79179 26.5057 1.46393 24.5547 0.706256C22.6038 -0.0514219 20.469 -0.203588 18.4299 0.269686C16.3909 0.742961 14.5426 1.81961 13.1272 3.35861H0V31H27.7166V18.0818C28.8044 17.1111 29.6749 15.9224 30.2712 14.5933C30.8675 13.2643 31.1762 11.8248 31.1772 10.3687ZM25.8442 10.3687C25.8463 11.3695 25.5508 12.3485 24.9949 13.1817C24.4391 14.0148 23.648 14.6648 22.7218 15.0492C21.7955 15.4337 20.7758 15.5354 19.7916 15.3414C18.8075 15.1474 17.9031 14.6665 17.193 13.9595C16.4829 13.2525 15.999 12.3513 15.8025 11.3698C15.606 10.3883 15.7058 9.37078 16.0892 8.44591C16.4727 7.52104 17.1225 6.73045 17.9565 6.17418C18.7904 5.61792 19.7711 5.321 20.7743 5.321C22.1171 5.321 23.4051 5.85247 24.3556 6.79878C25.3061 7.7451 25.8415 9.02897 25.8442 10.3687ZM22.3836 25.6795H5.33294V8.67911H10.5291C10.4288 9.23682 10.376 9.80203 10.3714 10.3687C10.3741 13.1204 11.4711 15.7586 13.4214 17.7044C15.3717 19.6502 18.0161 20.7445 20.7743 20.7473C21.3135 20.7444 21.8516 20.6988 22.3836 20.6109V25.6795Z" fill="#1D2130"/>
</svg>
