<svg width="20" height="20" viewBox="0 0 20 20" fill="none" xmlns="http://www.w3.org/2000/svg">
<g clip-path="url(#clip0_1_498)">
<path d="M6.2918 18.1197C13.8371 18.1197 17.9652 11.867 17.9652 6.4463C17.9652 6.27052 17.9613 6.09083 17.9535 5.91505C18.7566 5.3343 19.4496 4.61496 20 3.79083C19.2521 4.12358 18.458 4.3409 17.6449 4.43536C18.5011 3.92217 19.1421 3.11598 19.4492 2.16622C18.6438 2.64355 17.763 2.98026 16.8445 3.16193C16.2257 2.50439 15.4075 2.06901 14.5164 1.92313C13.6253 1.77724 12.711 1.92896 11.9148 2.35483C11.1186 2.7807 10.4848 3.45701 10.1115 4.27918C9.73825 5.10135 9.64619 6.0236 9.84961 6.90333C8.21874 6.82149 6.62328 6.39784 5.16665 5.65983C3.71002 4.92183 2.42474 3.88595 1.39414 2.61935C0.870333 3.52245 0.710047 4.59112 0.945859 5.60816C1.18167 6.6252 1.79589 7.51429 2.66367 8.09474C2.01219 8.07406 1.37498 7.89865 0.804688 7.58302V7.6338C0.804104 8.58154 1.13175 9.50024 1.73192 10.2337C2.3321 10.9672 3.16777 11.4702 4.09687 11.6572C3.49338 11.8224 2.85999 11.8464 2.2457 11.7276C2.50788 12.5426 3.01798 13.2555 3.70481 13.7667C4.39164 14.2779 5.22093 14.5619 6.07695 14.5791C4.62369 15.7207 2.82848 16.3399 0.980469 16.3369C0.652739 16.3364 0.325333 16.3163 0 16.2768C1.87738 17.4812 4.06128 18.1209 6.2918 18.1197Z" fill="#1D2130"/>
</g>
<defs>
<clipPath id="clip0_1_498">
<rect width="20" height="20" fill="white" transform="translate(0 -0.00488281)"/>
</clipPath>
</defs>
</svg>
