<svg xmlns="http://www.w3.org/2000/svg" width="28" height="28" viewBox="0 0 28 28" fill="none">
  <rect width="28" height="28" rx="4" fill="black"/>
  <path d="M22.797 19.4416C22.5191 19.2485 22.2746 19.0113 22.0729 18.7395C21.5902 18.191 20.9759 17.5108 19.835 17.5108C18.694 17.5108 18.1016 18.169 17.597 18.7615C17.0923 19.3539 16.7632 19.7049 16.0172 19.7049C15.2712 19.7049 14.8982 19.288 14.4375 18.7615C13.9767 18.2349 13.3624 17.5108 12.1995 17.5108C11.0366 17.5108 10.4662 18.169 9.96149 18.7615C9.45686 19.3539 9.12773 19.7049 8.38175 19.7049C7.63576 19.7049 7.26275 19.288 6.802 18.7615C6.48879 18.3478 6.09273 18.0041 5.63912 17.7522C5.42099 17.6431 5.15578 17.7315 5.04672 17.9497C4.93765 18.1678 5.02606 18.433 5.24419 18.5421C5.58868 18.7497 5.89333 19.0172 6.14375 19.3319C6.64838 19.9243 7.24078 20.5826 8.38175 20.5826C9.52271 20.5826 10.1151 19.9244 10.6197 19.3319C11.1244 18.7395 11.4535 18.3885 12.1995 18.3885C12.9455 18.3885 13.3185 18.8054 13.7792 19.3319C14.24 19.8585 14.8543 20.5826 16.0172 20.5826C17.1801 20.5826 17.7505 19.9244 18.2552 19.3319C18.7598 18.7395 19.089 18.3885 19.835 18.3885C20.5809 18.3885 20.9539 18.8054 21.4147 19.3319C21.6704 19.6603 21.9736 19.9486 22.3143 20.1876C22.5203 20.3209 22.7953 20.262 22.9286 20.0559C23.062 19.85 23.003 19.5749 22.797 19.4416Z" fill="#FFEBB9"/>
  <path d="M22.797 16.1505C22.5191 15.9573 22.2746 15.7202 22.0729 15.4484C21.5902 14.8999 20.9759 14.2197 19.835 14.2197C18.694 14.2197 18.1016 14.8779 17.597 15.4703C17.0923 16.0628 16.7632 16.4138 16.0172 16.4138C15.2712 16.4138 14.8982 15.9969 14.4375 15.4703C13.9767 14.9438 13.3624 14.2197 12.1995 14.2197C11.0366 14.2197 10.4662 14.8779 9.96149 15.4703C9.45686 16.0628 9.12773 16.4138 8.38175 16.4138C7.63576 16.4138 7.26275 15.9969 6.802 15.4703C6.48879 15.0567 6.09273 14.7129 5.63912 14.461C5.42099 14.352 5.15578 14.4404 5.04672 14.6585C4.93765 14.8766 5.02606 15.1419 5.24419 15.2509C5.58868 15.4585 5.89333 15.7261 6.14375 16.0408C6.64838 16.6332 7.24078 17.2914 8.38175 17.2914C9.52271 17.2914 10.1151 16.6332 10.6197 16.0408C11.1244 15.4484 11.4535 15.0973 12.1995 15.0973C12.9455 15.0973 13.3185 15.5142 13.7792 16.0408C14.24 16.5674 14.8543 17.2914 16.0172 17.2914C17.1801 17.2914 17.7505 16.6332 18.2552 16.0408C18.7598 15.4484 19.089 15.0973 19.835 15.0973C20.5809 15.0973 20.9539 15.5142 21.4147 16.0408C21.6704 16.3691 21.9736 16.6575 22.3143 16.8965C22.5203 17.0298 22.7953 16.9708 22.9286 16.7648C23.062 16.5589 23.003 16.2838 22.797 16.1505Z" fill="#FFEBB9"/>
  <path d="M22.797 12.6398C22.5191 12.4467 22.2746 12.2095 22.0729 11.9377C21.5902 11.3892 20.9759 10.709 19.835 10.709C18.694 10.709 18.1016 11.3672 17.597 11.9597C17.0923 12.5521 16.7632 12.9031 16.0172 12.9031C15.2712 12.9031 14.8982 12.4862 14.4375 11.9597C13.9767 11.4331 13.3624 10.709 12.1995 10.709C11.0366 10.709 10.4662 11.3672 9.96149 11.9597C9.45686 12.5521 9.12773 12.9031 8.38175 12.9031C7.63576 12.9031 7.26275 12.4862 6.802 11.9597C6.48879 11.546 6.09273 11.2023 5.63912 10.9504C5.42099 10.8413 5.15578 10.9297 5.04672 11.1478C4.93765 11.366 5.02606 11.6312 5.24419 11.7402C5.58868 11.9479 5.89333 12.2154 6.14375 12.5301C6.64838 13.1225 7.24078 13.7808 8.38175 13.7808C9.52271 13.7808 10.1151 13.1226 10.6197 12.5301C11.1244 11.9377 11.4535 11.5867 12.1995 11.5867C12.9455 11.5867 13.3185 12.0036 13.7792 12.5301C14.24 13.0567 14.8543 13.7808 16.0172 13.7808C17.1801 13.7808 17.7505 13.1226 18.2552 12.5301C18.7599 11.9377 19.089 11.5867 19.835 11.5867C20.5809 11.5867 20.9539 12.0036 21.4147 12.5301C21.6704 12.8584 21.9736 13.1468 22.3143 13.3858C22.5203 13.5191 22.7953 13.4602 22.9286 13.2541C23.062 13.0482 23.003 12.7731 22.797 12.6398Z" fill="#FFEBB9"/>
  <path d="M5.24436 8.44919C5.58886 8.65682 5.8935 8.92434 6.14392 9.23906C6.64855 9.83147 7.24096 10.4897 8.38192 10.4897C9.52288 10.4897 10.1152 9.83151 10.6199 9.23906C11.1245 8.64666 11.4537 8.29561 12.1997 8.29561C12.9456 8.29561 13.3187 8.71251 13.7794 9.23906C14.2401 9.76566 14.8545 10.4897 16.0174 10.4897C17.1803 10.4897 17.7507 9.83151 18.2554 9.23906C18.76 8.64666 19.0891 8.29561 19.8351 8.29561C20.5811 8.29561 20.9541 8.71251 21.4149 9.23906C21.6706 9.56739 21.9738 9.85578 22.3144 10.0948C22.5204 10.2281 22.7955 10.1691 22.9288 9.96312C23.0621 9.75713 23.0032 9.48206 22.7971 9.34876C22.5192 9.15562 22.2747 8.91846 22.0731 8.64666C21.5904 8.09814 20.976 7.41797 19.8351 7.41797C18.6942 7.41797 18.1018 8.07618 17.5971 8.66862C17.0925 9.26103 16.7633 9.61208 16.0173 9.61208C15.2714 9.61208 14.8983 9.19518 14.4376 8.66862C13.9769 8.14203 13.3625 7.41797 12.1996 7.41797C11.0367 7.41797 10.4663 8.07618 9.96162 8.66862C9.45699 9.26103 9.12786 9.61208 8.38188 9.61208C7.63589 9.61208 7.26296 9.19518 6.80218 8.66858C6.48897 8.25492 6.0929 7.91118 5.63929 7.65928C5.42116 7.55022 5.15595 7.63862 5.04689 7.85675C4.93783 8.07488 5.02627 8.34013 5.24436 8.44919Z" fill="#FFEBB9"/>
</svg>