<svg width="32" height="32" viewBox="0 0 32 32" fill="none" xmlns="http://www.w3.org/2000/svg">
<path fill-rule="evenodd" clip-rule="evenodd" d="M9.01466 7H12.6755C14.1917 7 15.4202 8.23888 15.4202 9.76781V13.4596C15.4202 14.9885 14.1917 16.2274 12.6755 16.2274H9.01466C7.49854 16.2274 6.27003 14.9885 6.27003 13.4596V9.76781C6.27003 8.23888 7.49854 7 9.01466 7ZM8.74463 17.5788H12.4055C13.9216 17.5788 15.1501 18.8177 15.1501 20.3466V24.0384C15.1501 25.5663 13.9216 26.8062 12.4055 26.8062H8.74463C7.22851 26.8062 6 25.5663 6 24.0384V20.3466C6 18.8177 7.22851 17.5788 8.74463 17.5788ZM23.232 17.616H19.54C18.011 17.616 16.772 18.855 16.772 20.384V24.076C16.772 25.604 18.011 26.844 19.54 26.844H23.232C24.761 26.844 26 25.604 26 24.076V20.384C26 18.855 24.761 17.616 23.232 17.616Z" fill="black"/>
<path opacity="0.4" d="M10.9998 4H21.6702C26.0893 4 29.67 7.58075 29.67 11.9998V22.6702C29.67 27.0893 26.0893 30.67 21.6702 30.67H10.9998C6.58075 30.67 3 27.0893 3 22.6702V11.9998C3 7.58075 6.58075 4 10.9998 4" fill="black"/>
</svg>
