<svg width="129" height="86" viewBox="0 0 129 86" fill="none" xmlns="http://www.w3.org/2000/svg">
<path opacity="0.4" d="M38.6942 0H90.3058C111.68 0 129 11.5465 129 25.7961V60.2039C129 74.4535 111.68 86 90.3058 86H38.6942C17.3197 86 0 74.4535 0 60.2039V25.7961C0 11.5465 17.3197 0 38.6942 0" fill="black"/>
<path fill-rule="evenodd" clip-rule="evenodd" d="M52.0517 30.667H56.5663C58.436 30.667 59.951 32.1948 59.951 34.0803V38.633C59.951 40.5185 58.436 42.0463 56.5663 42.0463H52.0517C50.182 42.0463 48.667 40.5185 48.667 38.633V34.0803C48.667 32.1948 50.182 30.667 52.0517 30.667ZM52.0517 45.9543H56.5663C58.436 45.9543 59.951 47.4821 59.951 49.3676V53.9203C59.951 55.8045 58.436 57.3336 56.5663 57.3336H52.0517C50.182 57.3336 48.667 55.8045 48.667 53.9203V49.3676C48.667 47.4821 50.182 45.9543 52.0517 45.9543ZM71.1006 44H65.8994C63.7454 44 62 45.7454 62 47.8994V53.1006C62 55.2531 63.7454 57 65.8994 57H71.1006C73.2546 57 75 55.2531 75 53.1006V47.8994C75 45.7454 73.2546 44 71.1006 44Z" fill="black"/>
</svg>
