<svg width="21" height="19" viewBox="0 0 21 19" fill="none" xmlns="http://www.w3.org/2000/svg">
<path fill-rule="evenodd" clip-rule="evenodd" d="M8.99405 3.56662C8.99405 5.39329 7.50738 6.87995 5.68071 6.87995C3.85271 6.87995 2.36738 5.39329 2.36738 3.56662C2.36738 1.73995 3.85271 0.251953 5.68071 0.251953C7.50738 0.251953 8.99405 1.73995 8.99405 3.56662ZM19.868 10.7834C20.1786 11.0847 20.4013 11.4287 20.548 11.7954C20.992 12.9047 20.7613 14.2381 20.2866 15.3367C19.724 16.6447 18.6466 17.6327 17.2893 18.0647C16.6866 18.2581 16.0546 18.3407 15.424 18.3407H4.24931C3.13731 18.3407 2.15331 18.0821 1.34665 17.5967C0.841313 17.2927 0.751979 16.5927 1.12665 16.1367C1.75331 15.3767 2.37198 14.6141 2.99598 13.8447C4.18531 12.3727 4.98665 11.9461 5.87731 12.3207C6.23865 12.4754 6.60131 12.7087 6.97465 12.9541C7.96931 13.6127 9.35198 14.5167 11.1733 13.5354C12.4183 12.8546 13.141 11.6898 13.77 10.6758L13.7826 10.6554C13.825 10.5875 13.8669 10.5197 13.9088 10.4521C14.1227 10.1065 14.3333 9.76609 14.572 9.45273C14.868 9.06473 15.9666 7.8514 17.3866 8.7154C18.292 9.2594 19.0533 9.9954 19.868 10.7834Z" fill="black"/>
</svg>
