<svg width="32" height="32" viewBox="0 0 32 32" fill="none" xmlns="http://www.w3.org/2000/svg">
<path opacity="0.4" d="M21.7774 29.3337H10.2219C5.70285 29.3337 2.66699 26.1642 2.66699 21.446V10.556C2.66699 5.83781 5.70285 2.66699 10.2219 2.66699H21.7787C26.2978 2.66699 29.3337 5.83781 29.3337 10.556V21.446C29.3337 26.1642 26.2978 29.3337 21.7774 29.3337Z" fill="black"/>
<path fill-rule="evenodd" clip-rule="evenodd" d="M14.994 11.5666C14.994 13.3933 13.5074 14.88 11.6807 14.88C9.85271 14.88 8.36738 13.3933 8.36738 11.5666C8.36738 9.73995 9.85271 8.25195 11.6807 8.25195C13.5074 8.25195 14.994 9.73995 14.994 11.5666ZM25.868 18.7834C26.1786 19.0847 26.4013 19.4287 26.548 19.7954C26.992 20.9047 26.7613 22.2381 26.2866 23.3367C25.724 24.6447 24.6466 25.6327 23.2893 26.0647C22.6866 26.2581 22.0546 26.3407 21.424 26.3407H10.2493C9.13731 26.3407 8.15331 26.0821 7.34665 25.5967C6.84131 25.2927 6.75198 24.5927 7.12665 24.1367C7.75331 23.3767 8.37198 22.6141 8.99598 21.8447C10.1853 20.3727 10.9866 19.9461 11.8773 20.3207C12.2386 20.4754 12.6013 20.7087 12.9746 20.9541C13.9693 21.6127 15.352 22.5167 17.1733 21.5354C18.4183 20.8546 19.141 19.6898 19.77 18.6758L19.7826 18.6554C19.825 18.5875 19.8669 18.5197 19.9088 18.4521C20.1227 18.1065 20.3333 17.7661 20.572 17.4527C20.868 17.0647 21.9666 15.8514 23.3866 16.7154C24.292 17.2594 25.0533 17.9954 25.868 18.7834Z" fill="black"/>
</svg>
