<svg width="32" height="32" viewBox="0 0 32 32" fill="none" xmlns="http://www.w3.org/2000/svg">
<path opacity="0.4" d="M29.3337 16.0003C29.3337 23.3643 23.3643 29.3337 16.0003 29.3337C8.63633 29.3337 2.66699 23.3643 2.66699 16.0003C2.66699 8.63766 8.63633 2.66699 16.0003 2.66699C23.3643 2.66699 29.3337 8.63766 29.3337 16.0003Z" fill="black"/>
<path d="M21.1473 11.6071L18.9873 18.4337C18.9073 18.7137 18.6806 18.9404 18.4006 19.0217L11.6006 21.1537C11.1473 21.3017 10.7073 20.8604 10.8539 20.4071L12.9873 13.5671C13.0673 13.2871 13.2939 13.0737 13.5739 12.9804L20.4006 10.8471C20.8673 10.7004 21.2939 11.1404 21.1473 11.6071Z" fill="black"/>
</svg>
