<svg width="32" height="32" viewBox="0 0 32 32" fill="none" xmlns="http://www.w3.org/2000/svg">
<rect width="32" height="32" fill="#1E1E1E"/>
<g id="Project read more" clip-path="url(#clip0_0_1)">
<rect width="1500" height="3615" transform="translate(-238 -1780)" fill="#FEFDFC"/>
<g id="Features section">
<path id="BG" d="M-238 -96H1262V340H-238V-96Z" fill="#FCEDC6"/>
<g id="Features">
<g id="Feature">
<g id="Iconly/Bulk/Edit Square">
<g id="Edit Square">
<path id="Fill 1" opacity="0.4" d="M22.2194 29.3199H9.78016C7.85147 29.4398 5.9574 28.7712 4.53219 27.4685C3.22952 26.042 2.56087 24.1479 2.68075 22.2206V9.78009C2.56087 7.85275 3.22819 5.9587 4.53086 4.53217C5.9574 3.22952 7.85147 2.56088 9.78016 2.68075H22.2194C24.1455 2.56088 26.0382 3.22819 27.4634 4.53084C28.7648 5.9587 29.4347 7.85141 29.3202 9.78009V22.2206C29.4387 24.1479 28.7714 26.042 27.4687 27.4685C26.0422 28.7712 24.1481 29.4398 22.2194 29.3199Z" fill="black"/>
<path id="Fill 4" d="M22.7397 13.8637L14.0027 22.6442C13.5483 23.0865 12.9511 23.3337 12.328 23.3337H9.27716C9.10839 23.3337 8.9526 23.2686 8.83576 23.1515C8.71892 23.0345 8.66699 22.8784 8.66699 22.7093L8.74489 19.6263C8.75787 19.015 9.00453 18.4426 9.43294 18.0133L15.6255 11.8085C15.7293 11.7044 15.9111 11.7044 16.0149 11.8085L18.1869 13.9717C18.3297 14.1135 18.5374 14.2059 18.7581 14.2059C19.2384 14.2059 19.6149 13.8156 19.6149 13.3473C19.6149 13.1132 19.524 12.905 19.3812 12.7489C19.3423 12.6969 17.2742 10.6377 17.2742 10.6377C17.1444 10.5076 17.1444 10.2865 17.2742 10.1564L18.144 9.27187C18.9489 8.46537 20.2471 8.46537 21.052 9.27187L22.7397 10.9629C23.5316 11.7564 23.5316 13.0572 22.7397 13.8637Z" fill="black"/>
</g>
</g>
</g>
</g>
</g>
</g>
<defs>
<clipPath id="clip0_0_1">
<rect width="1500" height="3615" fill="white" transform="translate(-238 -1780)"/>
</clipPath>
</defs>
</svg>
